<?xml version="1.0" encoding="UTF-8"?>
<svg version="1.1" xmlns="http://www.w3.org/2000/svg" width="512" height="512">
<path d="M0 0 C0.78836243 0.00215515 1.57672485 0.0043103 2.38897705 0.00653076 C41.81397614 0.17896218 80.39697661 11.88757006 112.375 35.3125 C113.24366699 35.94792725 113.24366699 35.94792725 114.12988281 36.59619141 C127.66951795 46.62457298 140.14220819 57.89026658 150.375 71.3125 C151.18324219 72.31667969 151.99148438 73.32085937 152.82421875 74.35546875 C176.375 103.76906454 176.375 103.76906454 176.375 115.3125 C177.57125 115.250625 178.7675 115.18875 180 115.125 C197.16447117 115.20558437 212.47769606 122.42315955 225.375 133.3125 C226.02984375 133.85390625 226.6846875 134.3953125 227.359375 134.953125 C238.94111734 145.47232217 247.57563187 162.93226581 248.57743835 178.44776917 C248.67157115 182.11483928 248.70458169 185.77703091 248.7109375 189.4453125 C248.71738455 190.80899182 248.72411424 192.17266982 248.73110962 193.53634644 C248.74302426 196.3855916 248.74679674 199.2347161 248.74560547 202.08398438 C248.74540317 205.69108361 248.77263802 209.29738712 248.80714989 212.90429878 C248.82966602 215.72034071 248.8334355 218.53619901 248.83238602 221.35232162 C248.83581795 223.31445953 248.85732615 225.27654014 248.87948608 227.23855591 C248.78389675 246.36377559 241.99930006 262.84943941 229 276.875 C228.13375 277.679375 227.2675 278.48375 226.375 279.3125 C225.79878906 279.90546875 225.22257812 280.4984375 224.62890625 281.109375 C211.18740491 294.22055589 192.80498476 299.38865696 174.375 299.3125 C169.98864202 298.86673191 165.69397662 298.19377516 161.375 297.3125 C161.03275391 298.34697266 161.03275391 298.34697266 160.68359375 299.40234375 C159.07813212 302.97269871 156.8715563 305.84528704 154.4375 308.875 C153.95168457 309.48561279 153.46586914 310.09622559 152.96533203 310.7253418 C148.0389285 316.84725099 142.79353619 322.62588031 137.375 328.3125 C136.64925781 329.09109375 135.92351562 329.8696875 135.17578125 330.671875 C111.05594176 355.81714205 78.05852296 372.08655891 44.57421875 380.3046875 C43.87868896 380.47718018 43.18315918 380.64967285 42.46655273 380.82739258 C41.03923532 381.15843958 39.60259114 381.45104142 38.16040039 381.7097168 C34.72242784 382.38165748 32.79212834 382.77619213 30.59765625 385.59765625 C30.21480469 386.51417969 29.83195312 387.43070312 29.4375 388.375 C24.64446074 398.23238262 17.50802665 404.30117467 7.375 408.3125 C6.46492187 408.67730469 5.55484375 409.04210937 4.6171875 409.41796875 C-5.66253222 412.25418058 -18.27507357 411.44408753 -27.625 406.3125 C-38.41237437 399.9254325 -45.37009377 391.74377549 -48.96484375 379.65234375 C-51.47525687 366.951733 -49.6988265 355.69926179 -42.9375 344.625 C-36.07220197 335.05467182 -27.18175696 329.0216741 -15.5546875 326.69921875 C-3.33870675 325.08670929 8.76422918 327.54987588 18.69140625 335.06640625 C23.58020738 339.18201972 27.64632881 343.47122398 30.375 349.3125 C30.375 349.9725 30.375 350.6325 30.375 351.3125 C62.49208298 342.60390079 88.9969899 330.25153034 113.375 307.3125 C114.014375 306.73757813 114.65375 306.16265625 115.3125 305.5703125 C127.08826576 294.5305321 136.1213174 280.62897881 143.375 266.3125 C143.69694336 265.68102051 144.01888672 265.04954102 144.35058594 264.39892578 C163.51347634 226.33793415 166.34841347 181.87645757 153.125 141.4375 C149.99786949 132.3001772 146.03566709 123.75833672 141.375 115.3125 C140.79878906 114.24644531 140.22257812 113.18039063 139.62890625 112.08203125 C133.27210008 100.73373755 125.30587569 90.73234473 116.375 81.3125 C115.48167969 80.35472656 114.58835937 79.39695312 113.66796875 78.41015625 C101.97655024 66.12213533 88.38808506 57.07582064 73.375 49.3125 C72.76188965 48.99297363 72.1487793 48.67344727 71.51708984 48.34423828 C35.11116456 29.63767501 -8.52708988 26.80540113 -47.42675781 38.91967773 C-49.83278428 39.69897188 -52.23052072 40.4984692 -54.625 41.3125 C-55.62974365 41.65039551 -55.62974365 41.65039551 -56.65478516 41.99511719 C-77.0368145 49.01833513 -95.08374389 61.57796558 -110.625 76.3125 C-111.58277344 77.20582031 -112.54054687 78.09914063 -113.52734375 79.01953125 C-143.48394339 107.52145625 -159.54518157 148.81906887 -160.62109375 189.7890625 C-160.89561485 217.79021479 -154.04817033 244.82842461 -141.11401367 269.62011719 C-138.55845948 274.69955824 -137.70102631 278.94372635 -139.25390625 284.60546875 C-141.70608371 289.58164477 -144.43116651 292.18727871 -149.625 294.3125 C-150.26050781 294.58707031 -150.89601563 294.86164063 -151.55078125 295.14453125 C-169.42768505 301.97882781 -188.80608523 299.86731021 -206.19140625 292.87890625 C-215.22462328 288.74405279 -221.75494476 283.37708735 -228.625 276.3125 C-229.31464844 275.60867188 -230.00429687 274.90484375 -230.71484375 274.1796875 C-241.13374292 262.91724507 -247.65923801 247.6133937 -247.80200195 232.19970703 C-247.81483719 230.98719269 -247.82767242 229.77467834 -247.84089661 228.52542114 C-247.84828354 227.22023529 -247.85567047 225.91504944 -247.86328125 224.5703125 C-247.86735678 223.89856869 -247.8714323 223.22682487 -247.87563133 222.53472519 C-247.89645493 218.97074448 -247.91076585 215.4068017 -247.92016602 211.84277344 C-247.93115072 208.20421768 -247.96546707 204.566287 -248.00533772 200.92794991 C-248.03180324 198.09476787 -248.03988449 195.26172715 -248.04344749 192.42843246 C-248.05054559 190.44854677 -248.07686132 188.46875885 -248.10383606 186.48904419 C-248.05650814 166.3638453 -240.34300456 149.34774326 -226.31640625 134.94140625 C-213.57192235 122.84943992 -197.15664638 115.24295899 -179.4375 115.1875 C-178.179375 115.22875 -176.92125 115.27 -175.625 115.3125 C-175.46572021 114.76795166 -175.30644043 114.22340332 -175.14233398 113.66235352 C-173.30446979 107.7410501 -170.83140309 102.58150073 -167.6875 97.25 C-167.20659912 96.42927002 -166.72569824 95.60854004 -166.23022461 94.76293945 C-161.27977551 86.48127231 -155.67466408 78.81823807 -149.625 71.3125 C-149.13918457 70.70567383 -148.65336914 70.09884766 -148.15283203 69.47363281 C-116.57077065 30.36801321 -69.54635751 5.91633438 -19.71221924 0.49777222 C-13.15900177 -0.08392476 -6.5734255 -0.03250127 0 0 Z M188.375 148.3125 C188.85276498 153.76907898 189.50190402 159.15451743 190.375 164.5625 C194.87070673 196.16868066 190.8447761 227.0407824 181.375 257.3125 C180.76825911 259.33256193 180.16363376 261.3532624 179.5625 263.375 C179.16717515 264.68765324 178.77158386 266.00022658 178.375 267.3125 C187.34234138 268.10959701 195.63071605 264.635707 202.53125 259.0078125 C210.57511374 251.61154796 216.72960077 242.82201969 217.57801819 231.63572693 C217.67214622 228.41723743 217.7046092 225.20424796 217.7109375 221.984375 C217.7175943 220.79958557 217.7242511 219.61479614 217.73110962 218.394104 C217.74121063 215.8927973 217.74592743 213.39146379 217.74560547 210.89013672 C217.74996951 207.08905951 217.78629377 203.28915264 217.82421875 199.48828125 C217.83008943 197.0494831 217.83405714 194.61067949 217.8359375 192.171875 C217.85030853 191.04755066 217.86467957 189.92322632 217.87948608 188.76483154 C217.81638782 177.71344473 214.6215497 167.80042867 207.375 159.3125 C201.68883885 153.78132791 196.13447945 150.11179958 188.375 148.3125 Z M-205.80859375 158.30078125 C-214.66706488 168.11177615 -217.09231903 178.94589782 -217.05859375 191.80078125 C-217.0638356 192.98036911 -217.06907745 194.15995697 -217.07447815 195.37528992 C-217.08087514 197.86045549 -217.07959164 200.34565144 -217.07104492 202.83081055 C-217.06254896 206.60325937 -217.09130967 210.37418526 -217.12304688 214.14648438 C-217.12465964 216.57291622 -217.12407992 218.99935071 -217.12109375 221.42578125 C-217.13232773 222.5386702 -217.14356171 223.65155914 -217.15513611 224.798172 C-217.03851774 238.11451285 -212.92350963 247.80546153 -203.7109375 257.28125 C-196.13344817 264.40590132 -187.94800595 267.51101935 -177.625 267.3125 C-178.06347891 265.84625748 -178.5023698 264.38013817 -178.94140625 262.9140625 C-179.2161377 261.99657227 -179.49086914 261.07908203 -179.77392578 260.13378906 C-180.53405764 257.61397159 -181.3102851 255.09978922 -182.08984375 252.5859375 C-191.65729337 221.14683073 -194.63100573 188.1784037 -188.02075195 155.79394531 C-187.61623734 153.25755632 -187.55703195 150.87635792 -187.625 148.3125 C-194.14433289 148.3125 -201.23545 154.04175242 -205.80859375 158.30078125 Z M-15.625 360.3125 C-18.01898482 363.18528179 -18.58524433 365.03917978 -19.125 368.75 C-18.46124442 373.47925851 -16.96818209 374.96931791 -13.625 378.3125 C-10.41886153 379.91556924 -7.10360003 379.79990461 -3.625 379.3125 C-0.2248301 377.24283136 2.29312696 375.20724294 3.375 371.3125 C3.2983703 366.48482863 3.08750857 364.29743832 0.25 360.375 C-5.32793165 356.37344034 -9.99938222 356.47685152 -15.625 360.3125 Z " fill="#000000" transform="translate(255.625,50.6875)"/>
<path d="M0 0 C0.64517578 0.16097168 1.29035156 0.32194336 1.95507812 0.48779297 C34.07329028 8.78845306 61.51918653 29.57112734 78.75927734 57.86376953 C95.36855104 86.46100386 101.3686722 120.98876759 93.3203125 153.3671875 C83.98066311 187.26824974 63.45125141 215.47984359 32.9765625 233.3984375 C23.09268981 239.00225575 12.93282236 242.96380772 2 246 C0.82308594 246.3403125 -0.35382813 246.680625 -1.56640625 247.03125 C-11.06614109 249.28365694 -20.60668352 249.28305424 -30.3125 249.3125 C-31.00418274 249.31626648 -31.69586548 249.32003296 -32.4085083 249.32391357 C-39.90228345 249.34457472 -47.12604582 249.1065915 -54.46166992 247.42651367 C-60.6314655 246.38980761 -64.63577721 246.8588763 -70.03515625 250.04296875 C-71.16397217 250.699021 -72.29278809 251.35507324 -73.45581055 252.03100586 C-74.658049 252.7498228 -75.86027863 253.46865449 -77.0625 254.1875 C-78.30746908 254.91500177 -79.55332976 255.64097978 -80.80004883 256.36547852 C-86.71450063 259.81441778 -92.57789768 263.34196893 -98.4140625 266.921875 C-99.39366943 267.51718018 -100.37327637 268.11248535 -101.38256836 268.72583008 C-103.20028623 269.83506674 -105.00910568 270.95907296 -106.80688477 272.1003418 C-112.09217768 275.33338604 -116.7095327 277.27396833 -123 277 C-128.24281997 275.42715401 -131.46346256 273.16063228 -135 269 C-137.64738452 261.05784643 -135.58985376 253.11471125 -133.33984375 245.3203125 C-133.07111954 244.34512665 -132.80239532 243.3699408 -132.52552795 242.36520386 C-131.67487808 239.28163861 -130.80787688 236.2030503 -129.9375 233.125 C-129.06467637 230.02526151 -128.1957634 226.92467795 -127.33876038 223.82052612 C-126.80744586 221.8969152 -126.2669603 219.97580828 -125.71629333 218.05764771 C-125.47596878 217.18929291 -125.23564423 216.32093811 -124.98803711 215.42626953 C-124.77263779 214.66589386 -124.55723846 213.90551819 -124.33531189 213.12210083 C-123.95629727 210.72341693 -124.18150754 209.27476256 -125 207 C-126.27374032 205.34811802 -127.61775804 203.74972138 -129 202.1875 C-151.5873203 175.11856853 -158.41065196 140.83341608 -155.79785156 106.33056641 C-152.13126131 73.58722368 -133.46604898 43.38724713 -108 23 C-92.42361925 11.15640642 -75.05436979 3.27751159 -56 -1 C-54.46472656 -1.36738281 -54.46472656 -1.36738281 -52.8984375 -1.7421875 C-35.88201193 -5.09043296 -16.79244455 -4.19811114 0 0 Z M-91 50 C-91.81082031 50.66644531 -92.62164062 51.33289063 -93.45703125 52.01953125 C-100.04301792 57.63431251 -105.11525495 63.87523699 -110 71 C-110.55558594 71.80050781 -111.11117187 72.60101563 -111.68359375 73.42578125 C-124.85295643 93.77843266 -128.04211471 119.4984585 -123.875 143.0625 C-119.55263441 161.11948523 -110.61420739 177.83209415 -97.1875 190.75 C-93.11621287 194.74692572 -90.8613443 198.29246729 -90.7734375 204.10546875 C-90.83363647 209.17864728 -92.05179468 213.62488171 -93.5625 218.4375 C-95.67936948 223.7579938 -95.67936948 223.7579938 -95 229 C-94.2886792 228.58113525 -93.5773584 228.16227051 -92.84448242 227.73071289 C-89.62719386 225.83839116 -86.40738573 223.95039881 -83.1875 222.0625 C-81.50817383 221.0734668 -81.50817383 221.0734668 -79.79492188 220.06445312 C-78.18520508 219.12182617 -78.18520508 219.12182617 -76.54296875 218.16015625 C-75.55321045 217.57886963 -74.56345215 216.99758301 -73.54370117 216.39868164 C-66.34728357 212.44165348 -59.39055098 213.90608019 -51.875 215.9375 C-26.32273439 222.29145773 -1.46741624 217.27211878 21 204 C42.65973758 189.9636659 57.72004605 168.91701436 63.4921875 143.74609375 C68.26543042 117.93386475 63.75540324 93.35253027 50 71 C47.81173039 67.86726497 45.46148825 64.92138415 43 62 C42.38253906 61.24847656 41.76507813 60.49695313 41.12890625 59.72265625 C25.90177731 41.79937571 3.22743458 30.71836225 -20 28 C-45.94584395 26.50663073 -70.9224055 32.80608155 -91 50 Z " fill="#000000" transform="translate(286,120)"/>
<path d="M0 0 C3.89435304 3.33801689 6.68255718 6.20237692 8.1875 11.1875 C8.1875 17.11250788 7.0080942 22.00649542 2.8125 26.3125 C-3.0444567 29.79878375 -7.15190719 30.49609666 -13.8125 28.875 C-18.17085033 26.61511464 -21.04009502 24.50294634 -22.8125 19.875 C-23.3456108 14.96593801 -23.51420476 10.52400618 -21.5625 5.9375 C-15.70130603 -0.97033575 -8.8505538 -3.54022152 0 0 Z " fill="#000000" transform="translate(213.8125,229.125)"/>
<path d="M0 0 C5.80067568 4.77702703 5.80067568 4.77702703 7.125 8.75 C7.63204484 14.04487804 7.77347741 18.40500981 5.4375 23.25 C1.51022782 27.49569966 -1.89477514 29.28085861 -7.75390625 29.8125 C-12.75899547 29.66502039 -16.60095865 27.92345914 -20.25 24.5625 C-23.05400625 19.70941225 -24.42436387 15.22517657 -23.375 9.625 C-22.01095403 5.10492611 -19.45454514 2.74512961 -15.875 -0.25 C-10.69063992 -1.97812003 -5.04805129 -2.19480491 0 0 Z " fill="#000000" transform="translate(313.875,229.25)"/>
<path d="M0 0 C3.375 1.6875 3.375 1.6875 6 4 C6.78375 4.66 7.5675 5.32 8.375 6 C10.98970891 10.8271549 10.71924257 15.63837357 10 21 C7.86995319 25.49676548 5.57411192 28.02481531 1 30 C-5.05286894 31.38918304 -9.55538277 31.17502069 -15 28 C-19.82217914 22.93052962 -20.29475551 19.49669117 -20.21484375 12.6953125 C-19.83195347 7.89177989 -17.95669858 5.84002802 -14.4375 2.75 C-9.75388167 -0.61259778 -5.65824139 -0.62675905 0 0 Z " fill="#000000" transform="translate(261,228)"/>
</svg>
