<?xml version="1.0" encoding="UTF-8"?>
<svg version="1.1" xmlns="http://www.w3.org/2000/svg" width="512" height="512">
<path d="M0 0 C1.08027969 -0.00671722 2.16055939 -0.01343445 3.27357483 -0.02035522 C6.84413251 -0.03934991 10.41450236 -0.04326026 13.98510742 -0.04541016 C16.46986468 -0.05183727 18.95462117 -0.05856556 21.43937683 -0.06558228 C26.64873 -0.07755889 31.85801684 -0.08126272 37.06738281 -0.08007812 C43.73548726 -0.07874555 50.40310191 -0.10717243 57.07112598 -0.14162254 C62.20389247 -0.16388433 67.33655626 -0.16791587 72.46936607 -0.16685867 C74.92729855 -0.16921588 77.3852338 -0.17804608 79.84311867 -0.19352341 C83.28503705 -0.2131669 86.72603485 -0.20735075 90.16796875 -0.1953125 C91.17863403 -0.20655151 92.18929932 -0.21779053 93.23059082 -0.22937012 C100.42253656 -0.16560366 105.59650526 1.38288195 111.26635742 5.86083984 C118.10858339 13.8938957 118.93710819 24.32106318 120.32104492 34.44677734 C120.49436844 35.67086304 120.66769196 36.89494873 120.8462677 38.15612793 C121.39329392 42.03328213 121.92941559 45.91185734 122.46557617 49.79052734 C122.8356531 52.42618136 123.20837817 55.06145434 123.58081055 57.69677734 C124.25487912 62.49115988 124.92842175 67.28560049 125.59130859 72.08154297 C125.72437912 73.04177368 125.85744965 74.00200439 125.99455261 74.99133301 C126.27807617 77.29052734 126.27807617 77.29052734 126.27807617 79.29052734 C127.11854492 79.54447266 127.95901367 79.79841797 128.82495117 80.06005859 C132.57944534 81.39791568 136.02866705 83.09338355 139.52807617 84.97802734 C140.18412842 85.32599365 140.84018066 85.67395996 141.51611328 86.0324707 C146.36562195 88.65718334 150.74975113 91.64980623 155.03198242 95.13818359 C158.14033616 96.73290421 159.90280165 96.02454201 163.27807617 95.29052734 C165.03811667 94.69958731 166.78021403 94.05281312 168.50146484 93.35693359 C169.98781685 92.76126587 169.98781685 92.76126587 171.50419617 92.15356445 C172.55750626 91.72438721 173.61081635 91.29520996 174.69604492 90.85302734 C175.79024246 90.41289307 176.88444 89.97275879 178.01179504 89.51928711 C181.49871117 88.11538071 184.98220554 86.70320495 188.46557617 85.29052734 C191.96036151 83.87964733 195.45581836 82.47044429 198.95149231 81.06176758 C201.12460238 80.1853484 203.29705815 79.30730477 205.46879578 78.42749023 C206.45024063 78.03037842 207.43168549 77.6332666 208.44287109 77.22412109 C209.30635666 76.87406006 210.16984222 76.52399902 211.05949402 76.16333008 C217.59557799 73.59199777 224.85509963 73.10631104 231.69995117 74.93896484 C241.00574904 79.15903597 245.51350522 88.73925062 250.27807617 97.22802734 C251.27271744 98.97651234 252.2673738 100.72498909 253.26318359 102.47280884 C253.94137286 103.66398377 254.61861495 104.85569845 255.29492188 106.04794312 C258.57243712 111.82506854 261.92066659 117.55960307 265.27807617 123.29052734 C270.27425243 131.84319503 275.2551285 140.40459689 280.21557617 148.97802734 C280.81821289 150.01636719 281.42084961 151.05470703 282.04174805 152.12451172 C296.77918469 177.63349674 296.77918469 177.63349674 294.85229492 187.46240234 C291.76225289 198.45764394 283.00749553 204.29662877 274.23217773 210.82324219 C270.56476923 213.57700595 266.9567722 216.40757222 263.34057617 219.22802734 C262.6505249 219.76443848 261.96047363 220.30084961 261.24951172 220.85351562 C259.78935021 221.98921545 258.34141464 223.14075469 256.90405273 224.30517578 C254.85022278 225.85795983 252.84958958 227.18400431 250.65991211 228.51806641 C245.31897206 231.9412768 240.48359753 235.07914139 238.90039062 241.52368164 C238.14863453 246.41234336 238.21016769 251.23607721 238.40307617 256.16552734 C238.41757812 257.02080017 238.43208008 257.876073 238.44702148 258.75726318 C238.55754768 270.18889782 238.55754768 270.18889782 243.33276367 280.24365234 C246.5342225 283.18819887 250.12966557 285.20834045 254.02026367 287.11572266 C257.76782221 289.06568499 260.9618302 291.69439701 264.27807617 294.29052734 C265.59392048 295.27349631 266.91164115 296.25395835 268.23120117 297.23193359 C272.56261913 300.48261823 276.80961622 303.83239887 281.02807617 307.22802734 C281.69581055 307.75976562 282.36354492 308.29150391 283.05151367 308.83935547 C290.63959197 314.99881409 294.47257336 320.96157671 295.71557617 330.72802734 C294.52163541 340.45011639 288.81409375 348.98247266 283.96557617 357.29052734 C283.2528907 358.52292296 282.54082555 359.75567749 281.8293457 360.98876953 C280.36731491 363.52041714 278.90165603 366.04990757 277.43286133 368.57763672 C275.40709972 372.0651328 273.39368741 375.55962603 271.38354492 379.05615234 C268.30700771 384.40649534 265.22125629 389.75141385 262.12915039 395.09277344 C260.87204386 397.26444072 259.61589195 399.43666082 258.3605957 401.609375 C256.48212419 404.85912594 254.59945883 408.10641087 252.71557617 411.35302734 C252.15596191 412.32208008 251.59634766 413.29113281 251.01977539 414.28955078 C238.94381769 435.05044702 238.94381769 435.05044702 229.27807617 438.29052734 C219.09609236 439.68122871 210.74540371 436.78050378 201.52807617 432.91552734 C200.17960751 432.370741 198.8302255 431.82821043 197.47998047 431.2878418 C193.40150044 429.64879417 189.3391914 427.97203694 185.27807617 426.29052734 C181.648531 424.7935286 178.01679891 423.30210872 174.38061523 421.82128906 C172.23033646 420.94337026 170.08487026 420.05354514 167.94506836 419.15039062 C166.5108252 418.56040283 166.5108252 418.56040283 165.04760742 417.95849609 C164.21849854 417.61069092 163.38938965 417.26288574 162.53515625 416.90454102 C159.30310316 416.02529672 157.43575068 416.66486757 154.5456543 418.22680664 C153.97266602 418.60232666 153.39967773 418.97784668 152.80932617 419.36474609 C152.16108887 419.78256348 151.51285156 420.20038086 150.8449707 420.63085938 C149.82185791 421.29770752 149.82185791 421.29770752 148.77807617 421.97802734 C131.06961594 433.29052734 131.06961594 433.29052734 126.27807617 433.29052734 C126.19704147 433.89615005 126.11600677 434.50177277 126.03251648 435.12574768 C125.17819591 441.50332404 124.3170439 447.87995287 123.45214844 454.25610352 C123.13143094 456.62696697 122.8123809 458.99805667 122.49511719 461.36938477 C117.09685706 501.69056236 117.09685706 501.69056236 108.66088867 508.61865234 C104.74790133 511.38305136 101.43967128 512.41287847 96.7191925 512.43769836 C95.31677055 512.44843132 95.31677055 512.44843132 93.88601685 512.4593811 C92.35012405 512.46341446 92.35012405 512.46341446 90.78320312 512.4675293 C89.70321548 512.47410049 88.62322784 512.48067169 87.51051331 512.48744202 C83.92912733 512.50718519 80.34778332 512.51884042 76.76635742 512.52880859 C75.54344687 512.53288412 74.32053631 512.53695965 73.06056786 512.54115868 C66.58692976 512.56202453 60.1133129 512.57632361 53.63964844 512.58569336 C48.28244634 512.59375117 42.92546861 512.61486816 37.56835938 512.6472168 C31.10042155 512.68565064 24.63271122 512.70445809 18.16466331 512.70897484 C15.70114074 512.71384356 13.23762177 512.72546558 10.7741642 512.74401283 C7.32248237 512.76838332 3.87166357 512.76744243 0.41992188 512.76049805 C-0.5938855 512.77330811 -1.60769287 512.78611816 -2.65222168 512.79931641 C-9.85034293 512.74665049 -15.23203774 511.30206998 -20.74536133 506.54443359 C-21.19137695 505.98626953 -21.63739258 505.42810547 -22.09692383 504.85302734 C-22.5584082 504.29744141 -23.01989258 503.74185547 -23.49536133 503.16943359 C-26.19237232 499.03802503 -27.01788251 495.072816 -27.44189453 490.20605469 C-27.55414871 489.00065033 -27.66640289 487.79524597 -27.78205872 486.55331421 C-27.90272202 485.25745392 -28.02338531 483.96159363 -28.14770508 482.62646484 C-28.51994667 479.14842385 -28.91946109 475.673471 -29.31849384 472.19841576 C-29.72861266 468.57994298 -30.10352697 464.96444653 -30.40234375 461.33496094 C-31.17489585 445.48950296 -31.17489585 445.48950296 -37.94210815 431.92797852 C-43.00670741 428.2411903 -48.43873399 426.08287932 -54.36277771 424.16027832 C-58.44853001 422.65397609 -61.37488636 420.11963782 -64.68676758 417.33740234 C-67.63116473 415.82281801 -69.52716985 416.60521561 -72.72192383 417.29052734 C-74.48196432 417.88146737 -76.22406169 418.52824156 -77.9453125 419.22412109 C-78.93621384 419.62123291 -79.92711517 420.01834473 -80.94804382 420.42749023 C-82.00135391 420.85666748 -83.054664 421.28584473 -84.13989258 421.72802734 C-85.23409012 422.16816162 -86.32828766 422.6082959 -87.4556427 423.06176758 C-90.94255882 424.46567398 -94.4260532 425.87784974 -97.90942383 427.29052734 C-101.40420916 428.70140736 -104.89966601 430.1106104 -108.39533997 431.51928711 C-110.56845004 432.39570629 -112.7409058 433.27374991 -114.91264343 434.15356445 C-115.89408829 434.55067627 -116.87553314 434.94778809 -117.88671875 435.35693359 C-118.75020432 435.70699463 -119.61368988 436.05705566 -120.50334167 436.41772461 C-127.03942564 438.98905691 -134.29894729 439.47474364 -141.14379883 437.64208984 C-150.4052267 433.44213999 -154.91300612 423.92786015 -159.65942383 415.47802734 C-160.65170077 413.73465189 -161.64398934 411.99128293 -162.63699341 410.24832153 C-163.66089353 408.44904908 -164.68161184 406.64799989 -165.7019043 404.84667969 C-168.84240073 399.30906753 -172.03518709 393.80160856 -175.22192383 388.29052734 C-176.460402 386.14350551 -177.69868227 383.9963695 -178.93676758 381.84912109 C-181.21001776 377.90846475 -183.48567895 373.96922329 -185.76467896 370.03189087 C-186.78210088 368.27394666 -187.79896844 366.51568292 -188.81567383 364.75732422 C-190.08411193 362.56398334 -191.35356485 360.37122887 -192.62426758 358.17919922 C-194.33363844 355.22198763 -196.03040542 352.25798097 -197.72192383 349.29052734 C-198.29209229 348.30117188 -198.86226074 347.31181641 -199.44970703 346.29248047 C-199.99071045 345.3340625 -200.53171387 344.37564453 -201.08911133 343.38818359 C-201.57105957 342.5413501 -202.05300781 341.6945166 -202.54956055 340.82202148 C-205.26376593 334.96121439 -205.40735375 328.78293704 -203.72192383 322.60302734 C-199.93241452 313.1460218 -191.5784321 307.6352012 -183.67602539 301.7578125 C-180.00861689 299.00404874 -176.40061985 296.17348247 -172.78442383 293.35302734 C-172.09437256 292.81661621 -171.40432129 292.28020508 -170.69335938 291.72753906 C-169.23319786 290.59183924 -167.7852623 289.4403 -166.34790039 288.27587891 C-164.29407043 286.72309486 -162.29343723 285.39705038 -160.10375977 284.06298828 C-154.76281972 280.63977788 -149.92744518 277.5019133 -148.34423828 271.05737305 C-147.59248218 266.16871133 -147.65401534 261.34497747 -147.84692383 256.41552734 C-147.86867676 255.1326181 -147.86867676 255.1326181 -147.89086914 253.8237915 C-148.00139534 242.39215687 -148.00139534 242.39215687 -152.77661133 232.33740234 C-155.97807016 229.39285582 -159.57351323 227.37271424 -163.46411133 225.46533203 C-167.21166987 223.51536969 -170.40567786 220.88665768 -173.72192383 218.29052734 C-175.03776813 217.30755838 -176.35548881 216.32709634 -177.67504883 215.34912109 C-182.00646678 212.09843646 -186.25346388 208.74865582 -190.47192383 205.35302734 C-191.1396582 204.82128906 -191.80739258 204.28955078 -192.49536133 203.74169922 C-200.08343962 197.5822406 -203.91642102 191.61947798 -205.15942383 181.85302734 C-203.96032302 172.08892074 -198.21285 163.51100249 -193.34692383 155.16552734 C-192.63097502 153.92641596 -191.91557087 152.68698974 -191.20068359 151.44726562 C-189.0501574 147.72305814 -186.88707695 144.00624419 -184.72192383 140.29052734 C-184.10397949 139.22833984 -183.48603516 138.16615234 -182.84936523 137.07177734 C-180.55733632 133.1335223 -178.26314632 129.19657569 -175.96069336 125.2644043 C-172.85927188 119.96721181 -169.77838451 114.65899754 -166.72583008 109.33349609 C-166.39066879 108.74949036 -166.05550751 108.16548462 -165.71018982 107.56378174 C-164.09317388 104.74608399 -162.47898541 101.92685218 -160.87011719 99.10449219 C-148.52080658 77.57523831 -148.52080658 77.57523831 -138.72192383 74.29052734 C-128.53994002 72.89982598 -120.18925137 75.80055091 -110.97192383 79.66552734 C-109.62345516 80.21031369 -108.27407315 80.75284426 -106.92382812 81.29321289 C-102.8453481 82.93226052 -98.78303905 84.60901775 -94.72192383 86.29052734 C-91.09237865 87.78752609 -87.46064656 89.27894597 -83.82446289 90.75976562 C-81.67418412 91.63768443 -79.52871791 92.52750955 -77.38891602 93.43066406 C-76.43275391 93.82398926 -75.4765918 94.21731445 -74.49145508 94.62255859 C-73.66234619 94.97036377 -72.8332373 95.31816895 -71.97900391 95.67651367 C-68.65129735 96.58177944 -66.78205667 95.85936264 -63.8059082 94.26245117 C-63.14913086 93.84503662 -62.49235352 93.42762207 -61.81567383 92.99755859 C-60.69805664 92.29856445 -60.69805664 92.29856445 -59.55786133 91.58544922 C-58.03168371 90.61691342 -56.50563635 89.64817231 -54.97973633 88.67919922 C-54.2243457 88.20675781 -53.46895508 87.73431641 -52.69067383 87.24755859 C-51.94990601 86.77793198 -51.20913818 86.30830536 -50.44592285 85.82444763 C-47.72192383 84.29052734 -47.72192383 84.29052734 -44.71716309 83.17677307 C-38.31825777 80.71741056 -38.31825777 80.71741056 -34.34680176 75.41395569 C-33.52963644 71.74261469 -33.07441577 68.16804461 -32.72192383 64.42333984 C-32.55210388 63.0603633 -32.37695812 61.69804087 -32.19677734 60.33639526 C-31.73641823 56.7633737 -31.33975736 53.18628013 -30.95904541 49.60400391 C-30.3387234 43.87883888 -29.61658757 38.16543319 -28.90380859 32.45119858 C-28.66482152 30.46812891 -28.45185451 28.48197844 -28.23950195 26.49588013 C-27.29176493 18.29561533 -26.13979961 10.39349506 -19.28442383 4.91552734 C-18.72883789 4.45404297 -18.17325195 3.99255859 -17.60083008 3.51708984 C-11.91611669 -0.19392887 -6.58987162 -0.00587455 0 0 Z M-3.72192383 22.29052734 C-3.91531342 23.52961349 -3.91531342 23.52961349 -4.11260986 24.79373169 C-5.33270769 32.59381993 -6.56706983 40.39148895 -7.81734085 48.1868 C-8.45955715 52.19414602 -9.0963042 56.2022002 -9.72045898 60.21240234 C-10.32347339 64.08543968 -10.9409748 67.95591647 -11.56841278 71.82506943 C-11.80477603 73.29855879 -12.03598605 74.7728847 -12.26184845 76.24802017 C-12.58014019 78.32081936 -12.91695324 80.38983391 -13.25805664 82.45898438 C-13.44458801 83.63590851 -13.63111938 84.81283264 -13.82330322 86.02542114 C-15.05315164 90.4940319 -16.96539923 94.11030925 -20.86572266 96.73095703 C-21.62908936 97.05483398 -22.39245605 97.37871094 -23.17895508 97.71240234 C-24.037229 98.09307861 -24.89550293 98.47375488 -25.77978516 98.8659668 C-26.68881592 99.25357178 -27.59784668 99.64117676 -28.53442383 100.04052734 C-35.38844946 103.12132656 -41.83886368 106.33725815 -48.03442383 110.60302734 C-48.64205566 111.02084473 -49.2496875 111.43866211 -49.87573242 111.86914062 C-52.31281675 113.56548228 -54.72637761 115.29373436 -57.13598633 117.02880859 C-57.8037207 117.48642578 -58.47145508 117.94404297 -59.15942383 118.41552734 C-59.67375977 118.78935547 -60.1880957 119.16318359 -60.71801758 119.54833984 C-69.03069345 122.62710868 -77.01092833 118.1884186 -84.62817383 115.04052734 C-85.96146665 114.5012331 -87.29525651 113.96316621 -88.6295166 113.42626953 C-92.11971163 112.01804303 -95.60295418 110.59337 -99.08496094 109.16503906 C-102.64736076 107.70719419 -106.21615384 106.26517972 -109.78442383 104.82177734 C-116.76990437 101.99338848 -123.74810846 99.14757537 -130.72192383 96.29052734 C-133.67821687 99.92192507 -136.16381465 103.540808 -138.51489258 107.59521484 C-138.86200287 108.19090271 -139.20911316 108.78659058 -139.56674194 109.40032959 C-140.3039103 110.66635805 -141.039284 111.93343296 -141.77297974 113.20147705 C-143.30883763 115.855811 -144.85344281 118.50501567 -146.39762878 121.1545105 C-147.1567086 122.45708834 -147.91534985 123.75992187 -148.67353821 125.0630188 C-151.17863733 129.36717742 -153.71192332 133.65138253 -156.28442383 137.91552734 C-160.179663 144.37443081 -164.03955659 150.8540328 -167.88864136 157.34051514 C-168.59969372 158.53842914 -169.31120622 159.73607015 -170.02322388 160.93341064 C-174.02544488 167.66451041 -177.97489388 174.4135467 -181.72192383 181.29052734 C-176.06295236 186.47416523 -170.21664336 191.30773942 -164.15893555 196.01049805 C-159.54584126 199.60619737 -155.07663255 203.34262891 -150.63720703 207.14941406 C-145.99859241 211.10594197 -141.22439472 214.87348017 -136.38989258 218.58740234 C-128.17086385 224.94370727 -128.17086385 224.94370727 -126.72192383 229.29052734 C-126.81254817 232.19927647 -126.96138973 235.07657101 -127.15942383 237.97802734 C-127.78339613 248.4449151 -128.12389889 258.8615408 -127.38989258 269.33349609 C-127.30360596 270.61643555 -127.30360596 270.61643555 -127.21557617 271.92529297 C-127.09758745 273.58794806 -126.96454619 275.24962519 -126.81420898 276.90966797 C-126.47084384 281.65032222 -126.51311625 284.50577995 -129.72192383 288.29052734 C-132.07881269 290.48891964 -134.56185483 292.48958074 -137.09692383 294.47802734 C-137.81444824 295.05045166 -138.53197266 295.62287598 -139.27124023 296.21264648 C-145.08527289 300.8353636 -150.96847651 305.3671069 -156.87329102 309.87304688 C-160.67084188 312.78490376 -164.44498375 315.72702086 -168.22192383 318.66552734 C-169.37120361 319.55872681 -169.37120361 319.55872681 -170.54370117 320.4699707 C-174.29045397 323.38498578 -178.02492903 326.31239264 -181.72192383 329.29052734 C-181.05178988 332.68194514 -179.74646328 335.30180484 -178.05395508 338.30615234 C-177.49780518 339.29736084 -176.94165527 340.28856934 -176.36865234 341.30981445 C-175.76335693 342.37594971 -175.15806152 343.44208496 -174.53442383 344.54052734 C-173.90656982 345.65371338 -173.27871582 346.76689941 -172.63183594 347.91381836 C-167.28297737 357.36825121 -161.82104321 366.75557798 -156.32739258 376.12646484 C-152.38697123 382.85124703 -148.48923222 389.60033045 -144.59692383 396.35302734 C-143.96923096 397.44156006 -143.34153809 398.53009277 -142.69482422 399.65161133 C-139.6938391 404.85890273 -136.69900298 410.06953033 -133.72192383 415.29052734 C-126.11363803 413.15755408 -118.79141186 410.49087982 -111.43286133 407.62255859 C-109.08672973 406.72028693 -106.74036861 405.81861191 -104.39379883 404.91748047 C-100.73350461 403.50795216 -97.07493225 402.09445998 -93.42016602 400.6706543 C-89.86643099 399.28835519 -86.30657122 397.92296382 -82.74536133 396.56005859 C-81.65871185 396.13199417 -80.57206238 395.70392975 -79.45248413 395.26289368 C-73.60394266 393.04039751 -68.98723749 391.66202632 -62.72192383 392.29052734 C-60.02661133 393.50537109 -60.02661133 393.50537109 -57.59692383 395.22802734 C-56.6559082 395.86869141 -55.71489258 396.50935547 -54.74536133 397.16943359 C-53.24875977 398.219375 -53.24875977 398.219375 -51.72192383 399.29052734 C-49.56418225 400.76560875 -47.40398263 402.22754463 -45.22192383 403.66552734 C-44.65417236 404.04016113 -44.0864209 404.41479492 -43.50146484 404.80078125 C-37.64051872 408.5468874 -31.3970608 411.41651327 -25.03051758 414.19628906 C-24.25450195 414.54320801 -23.47848633 414.89012695 -22.67895508 415.24755859 C-21.64218628 415.69578979 -21.64218628 415.69578979 -20.58447266 416.15307617 C-17.17304094 418.23642397 -15.94784078 420.46558817 -14.90014648 424.29125977 C-14.68922363 425.50144775 -14.47830078 426.71163574 -14.26098633 427.95849609 C-14.14050934 428.64388962 -14.02003235 429.32928314 -13.89590454 430.03544617 C-12.04612466 440.85072582 -10.60511752 451.73623723 -9.09692383 462.60302734 C-8.62996374 465.96008524 -8.16189079 469.31696959 -7.69033813 472.67338562 C-7.39931361 474.74527624 -7.11093538 476.81754074 -6.82553101 478.89021301 C-6.62995102 480.28393379 -6.62995102 480.28393379 -6.43041992 481.70581055 C-6.3173349 482.52136917 -6.20424988 483.3369278 -6.08773804 484.17720032 C-5.74506809 486.47073532 -5.74506809 486.47073532 -4.72192383 489.29052734 C28.28015672 490.35602471 61.26136042 490.40588169 94.27807617 490.29052734 C94.40922318 489.47699799 94.54037018 488.66346863 94.67549133 487.82528687 C95.91561466 480.14369944 97.1651907 472.46373728 98.42530537 464.78540611 C99.07274921 460.83822758 99.71657363 456.8905305 100.35205078 452.94140625 C100.96591847 449.1274308 101.58939186 445.31513756 102.21944237 441.50380325 C102.45766268 440.05237828 102.69246742 438.60038828 102.92373085 437.14783859 C103.24926192 435.10703106 103.58708895 433.06860494 103.92773438 431.03027344 C104.21086235 429.29153458 104.21086235 429.29153458 104.49971008 427.51766968 C105.75292095 422.32179863 106.97729172 419.10024642 111.57885742 416.23583984 C112.90837087 415.61232196 114.246214 415.00634956 115.59057617 414.41552734 C117.04260244 413.73252076 118.49309925 413.04625429 119.94213867 412.35693359 C120.67078125 412.0142041 121.39942383 411.67147461 122.15014648 411.31835938 C131.56076066 406.77284702 140.23365457 401.11723197 148.73120117 395.07568359 C152.9578367 392.11314918 156.18747333 391.58243779 161.27807617 392.29052734 C166.02761203 393.75392056 170.5950093 395.64395326 175.18432617 397.54052734 C176.51761899 398.07982159 177.85140886 398.61788848 179.18566895 399.15478516 C182.67586397 400.56301166 186.15910653 401.98768469 189.64111328 403.41601562 C193.2035131 404.8738605 196.77230619 406.31587497 200.34057617 407.75927734 C207.32605671 410.58766621 214.3042608 413.43347932 221.27807617 416.29052734 C223.729965 413.25905208 225.98570648 410.30849231 227.94995117 406.93896484 C228.44084229 406.10212158 228.9317334 405.26527832 229.4375 404.40307617 C229.96239014 403.49968506 230.48728027 402.59629395 231.02807617 401.66552734 C232.1931379 399.67706862 233.35851665 397.68879561 234.52416992 395.70068359 C235.13631348 394.65412598 235.74845703 393.60756836 236.37915039 392.52929688 C239.59636966 387.04207255 242.84465924 381.57330763 246.09057617 376.10302734 C247.43314366 373.83877532 248.77559012 371.57445153 250.11791992 369.31005859 C250.45448608 368.74236755 250.79105225 368.17467651 251.13781738 367.58978271 C253.31070518 363.92424121 255.4814205 360.25742086 257.65074158 356.58976746 C259.12852114 354.09137378 260.60689275 351.59333068 262.08529663 349.0953064 C262.79199124 347.90083921 263.49839616 346.70620058 264.20449829 345.51138306 C265.18400672 343.85398963 266.16461041 342.19724364 267.14526367 340.54052734 C267.7032666 339.59693359 268.26126953 338.65333984 268.83618164 337.68115234 C269.93726107 335.85559025 271.09550363 334.06438615 272.27807617 332.29052734 C272.40695192 330.30169472 272.40695192 330.30169472 271.27807617 328.29052734 C269.33625029 326.51977422 267.44255986 324.9730628 265.34057617 323.41552734 C264.06052327 322.43910246 262.78058077 321.46253283 261.50073242 320.48583984 C260.81640137 319.96924805 260.13207031 319.45265625 259.42700195 318.92041016 C255.68241021 316.08027218 251.98391008 313.18092752 248.27807617 310.29052734 C246.75217549 309.10414807 245.22613488 307.91794875 243.69995117 306.73193359 C239.63680433 303.57141359 235.57879598 300.40445947 231.52807617 297.22802734 C230.98022461 296.79941406 230.43237305 296.37080078 229.86791992 295.92919922 C228.33245193 294.72330438 226.80514569 293.50703998 225.27807617 292.29052734 C224.73344727 291.86916504 224.18881836 291.44780273 223.62768555 291.01367188 C218.19719942 286.70441369 218.19719942 286.70441369 217.27807617 283.29052734 C217.29549824 280.32877661 217.41961793 277.48479265 217.65307617 274.54052734 C217.76556646 272.81676948 217.8748958 271.09280268 217.98120117 269.36865234 C218.03469727 268.50949219 218.08819336 267.65033203 218.14331055 266.76513672 C218.56971406 258.93537943 218.52085515 251.0992121 217.91088867 243.28271484 C217.84885254 242.43193359 217.78681641 241.58115234 217.72290039 240.70458984 C217.59628606 239.05447829 217.45051924 237.40568526 217.2824707 235.75927734 C216.97665214 231.78787174 217.06974016 229.71489651 218.86401367 226.06005859 C221.5358002 222.99485367 224.40744192 220.51923174 227.65307617 218.10302734 C228.91628703 217.13712997 230.17930263 216.17097721 231.44213867 215.20458984 C232.083125 214.71893555 232.72411133 214.23328125 233.38452148 213.73291016 C236.29382577 211.51679751 239.15905722 209.24587481 242.02807617 206.97802734 C248.38126949 201.97885321 254.76337061 197.0169561 261.15014648 192.06079102 C264.8812031 189.1637011 268.59995946 186.25487091 272.27807617 183.29052734 C271.72094411 178.57287682 269.59078252 175.07188663 267.15307617 171.10302734 C266.23637812 169.57778632 265.32110577 168.05168785 264.40698242 166.52490234 C263.90569824 165.69023437 263.40441406 164.85556641 262.88793945 163.99560547 C259.90237582 158.97891681 257.00130508 153.9133745 254.09057617 148.85302734 C252.80546284 146.62253386 251.52030593 144.3920655 250.23510742 142.16162109 C249.58622559 141.03481934 248.93734375 139.90801758 248.26879883 138.74707031 C245.58815616 134.09260148 242.90564736 129.43921078 240.22216797 124.78637695 C238.96939663 122.61420392 237.71693158 120.4418542 236.46484375 118.26928711 C232.4247943 111.26333953 228.35913052 104.27266554 224.27807617 97.29052734 C216.66979037 99.42350061 209.3475642 102.09017487 201.98901367 104.95849609 C199.64288208 105.86076776 197.29652096 106.76244278 194.94995117 107.66357422 C191.28965695 109.07310253 187.6310846 110.48659471 183.97631836 111.91040039 C180.42258333 113.29269949 176.86272357 114.65809087 173.30151367 116.02099609 C171.67153946 116.66309273 171.67153946 116.66309273 170.00863647 117.31816101 C164.16009501 119.54065718 159.54338983 120.91902837 153.27807617 120.29052734 C150.58276367 119.07568359 150.58276367 119.07568359 148.15307617 117.35302734 C147.21206055 116.71236328 146.27104492 116.07169922 145.30151367 115.41162109 C144.3037793 114.71166016 143.30604492 114.01169922 142.27807617 113.29052734 C140.12033459 111.81544594 137.96013498 110.35351005 135.77807617 108.91552734 C135.21032471 108.54089355 134.64257324 108.16625977 134.05761719 107.78027344 C128.19667106 104.03416728 121.95321315 101.16454142 115.58666992 98.38476562 C114.8106543 98.03784668 114.03463867 97.69092773 113.23510742 97.33349609 C112.54392822 97.03467529 111.85274902 96.73585449 111.140625 96.42797852 C107.72919329 94.34463072 106.50399312 92.11546652 105.45629883 88.28979492 C105.13991455 86.47451294 105.13991455 86.47451294 104.81713867 84.62255859 C104.69666168 83.93716507 104.57618469 83.25177155 104.45205688 82.54560852 C102.602277 71.73032887 101.16126987 60.84481746 99.65307617 49.97802734 C99.18611609 46.62096944 98.71804314 43.2640851 98.24649048 39.90766907 C97.95546596 37.83577845 97.66708773 35.76351395 97.38168335 33.69084167 C97.18610336 32.2971209 97.18610336 32.2971209 96.98657227 30.87524414 C96.87348724 30.05968552 96.76040222 29.24412689 96.64389038 28.40385437 C96.30122043 26.11031937 96.30122043 26.11031937 95.27807617 23.29052734 C62.27565475 22.26389456 29.2945112 22.17243362 -3.72192383 22.29052734 Z " fill="#000000" transform="translate(210.721923828125,-0.29052734375)"/>
<path d="M0 0 C0.82371094 0.60328125 1.64742187 1.2065625 2.49609375 1.828125 C12.50560526 9.51093258 21.32681695 18.26083099 28 29 C28.65742188 30.03640625 29.31484375 31.0728125 29.9921875 32.140625 C45.04399707 57.01871025 49.23293284 86.89068911 42.39453125 115.171875 C39.01164547 127.59179023 33.63248536 139.61509182 26 150 C25.39671875 150.82371094 24.7934375 151.64742187 24.171875 152.49609375 C16.48906742 162.50560526 7.73916901 171.32681695 -3 178 C-4.03640625 178.65742188 -5.0728125 179.31484375 -6.140625 179.9921875 C-29.90428368 194.36974355 -58.87025058 199.16580252 -86.078125 193.09765625 C-113.27470397 185.79642082 -136.23806492 170.6590853 -152 147 C-152.59683594 146.10925781 -153.19367188 145.21851563 -153.80859375 144.30078125 C-168.54123012 120.7745 -173.1264394 90.95325621 -167.09765625 63.921875 C-159.79642082 36.72529603 -144.6590853 13.76193508 -121 -2 C-120.10925781 -2.59683594 -119.21851563 -3.19367188 -118.30078125 -3.80859375 C-82.8084755 -26.03459833 -33.87169962 -24.89432232 0 0 Z M-119 25 C-119.76183594 25.66644531 -120.52367187 26.33289063 -121.30859375 27.01953125 C-137.06607503 41.73925813 -145.84929689 63.2435393 -147.15625 84.546875 C-147.8830098 106.95530224 -139.74825631 128.23442213 -125 145 C-124.00033203 146.14275391 -124.00033203 146.14275391 -122.98046875 147.30859375 C-108.41169747 162.90447691 -86.93786709 171.85549805 -65.81640625 173.203125 C-43.08574644 173.53057748 -22.15156758 166.08780172 -5 151 C-4.23816406 150.33355469 -3.47632813 149.66710937 -2.69140625 148.98046875 C12.90447691 134.41169747 21.85549805 112.93786709 23.203125 91.81640625 C23.53057748 69.08574644 16.08780172 48.15156758 1 31 C0.33355469 30.23816406 -0.33289063 29.47632813 -1.01953125 28.69140625 C-15.58830253 13.09552309 -37.06213291 4.14450195 -58.18359375 2.796875 C-80.91425356 2.46942252 -101.84843242 9.91219828 -119 25 Z " fill="#000000" transform="translate(318,168)"/>
</svg>
