<?xml version="1.0" encoding="UTF-8"?>
<svg version="1.1" xmlns="http://www.w3.org/2000/svg" width="512" height="512">
<path d="M0 0 C2.07442344 -0.00272051 4.14884591 -0.0062873 6.2232666 -0.01062012 C11.78114766 -0.01962059 17.33895321 -0.01625169 22.89683533 -0.00986195 C28.76097796 -0.00473711 34.62511487 -0.00951116 40.48925781 -0.01263428 C50.33008972 -0.01625527 60.17089144 -0.01152418 70.01171875 -0.00195312 C81.32877141 0.00892777 92.64575197 0.00540087 103.96280289 -0.00560594 C113.7444431 -0.01473237 123.52606182 -0.01593809 133.30770493 -0.0107286 C139.12136768 -0.00763815 144.93499674 -0.00711777 150.74865723 -0.01380157 C156.21871758 -0.01965305 161.68868653 -0.0154383 167.15873718 -0.00401306 C169.14544016 -0.00140759 171.13215107 -0.0020593 173.11885071 -0.00653839 C212.9583871 -0.08795685 249.61888725 4.13708734 279.671875 32.50878906 C305.67750841 59.57206785 312.4578271 94.47165195 314.21875 130.75878906 C314.26062187 131.59803925 314.30249374 132.43728943 314.34563446 133.30197144 C315.44143697 155.8819463 315.41348776 178.47485847 315.37011719 201.07617188 C315.3587238 207.05871868 315.36550919 213.04108748 315.37699413 219.02362823 C315.41328268 241.29619237 315.32780287 263.54148618 314.20703125 285.79003906 C314.16740013 286.59234955 314.12776901 287.39466003 314.08693695 288.22128296 C313.09642638 307.63020439 311.0467294 326.97491625 304.109375 345.25878906 C303.65691406 346.46535156 303.20445312 347.67191406 302.73828125 348.91503906 C293.11847519 372.89937936 273.7310078 393.68257914 250.515625 405.01269531 C225.58382704 415.64067329 197.93646637 416.41181676 171.24047852 416.40405273 C169.16738322 416.40705081 167.09428848 416.41045481 165.02119446 416.41423035 C159.42561331 416.42301064 153.83004749 416.42540599 148.23446012 416.42604613 C144.7262152 416.42676027 141.21797411 416.42890148 137.70973015 416.43154335 C125.43514639 416.44077848 113.16057344 416.44488072 100.88598633 416.4440918 C89.50266587 416.44349217 78.11939296 416.45402618 66.73608452 416.46983546 C56.91641348 416.48297979 47.09675785 416.48827279 37.27707809 416.48763639 C31.43309505 416.48738333 25.58915429 416.49012671 19.74518013 416.50081444 C14.23831165 416.51061173 8.73152488 416.51049637 3.22465324 416.50329781 C1.22344211 416.50226609 -0.77777443 416.50452871 -2.77897644 416.51065826 C-28.46417156 416.58412382 -54.9255324 415.34311021 -78.890625 405.25878906 C-79.8909375 404.84113281 -80.89125 404.42347656 -81.921875 403.99316406 C-105.20912013 393.33005708 -124.32831908 370.87822458 -133.375 347.13623047 C-141.43647607 324.73581515 -143.59659388 301.20193063 -144.44482422 277.55566406 C-144.48693464 276.39129822 -144.52904507 275.22693237 -144.57243156 274.02728271 C-144.98238704 261.85377241 -145.03610339 249.68802372 -145.0234375 237.50878906 C-145.02411476 235.14583323 -145.02508825 232.78287747 -145.02633667 230.41992188 C-145.02779384 225.51594364 -145.025724 220.61198387 -145.02099609 215.70800781 C-145.01530008 209.50667855 -145.01858988 203.30539262 -145.02456856 197.10406494 C-145.0282284 192.23909189 -145.02701107 187.37412866 -145.02444077 182.50915527 C-145.02378638 180.22603347 -145.02454597 177.9429107 -145.02692032 175.65979004 C-145.10858623 75.13951476 -145.10858623 75.13951476 -115.890625 40.25878906 C-115.05789062 39.26234375 -114.22515625 38.26589844 -113.3671875 37.23925781 C-90.89490171 11.18993842 -61.28772495 3.36974821 -28.0657959 0.67511749 C-18.71257368 -0.0084576 -9.37331405 -0.02113251 0 0 Z M48.109375 32.25878906 C48.109375 148.41878906 48.109375 264.57878906 48.109375 384.25878906 C150.71070898 395.85561918 150.71070898 395.85561918 255.25390625 361.34082031 C271.10211239 344.72949268 277.19181952 324.73352389 279.796875 302.38378906 C279.97609497 300.87341064 279.97609497 300.87341064 280.15893555 299.33251953 C282.34218048 278.66994802 282.26412724 257.76258406 282.2421875 237.00878906 C282.24286467 234.68684886 282.24383809 232.36490872 282.24508667 230.04296875 C282.24654425 225.22297477 282.2444726 220.40299957 282.23974609 215.58300781 C282.23405005 209.48580428 282.23733962 203.3886448 282.24331856 197.29144287 C282.24697723 192.51057621 282.24576158 187.72971955 282.24319077 182.94885254 C282.24253607 180.70397944 282.24329717 178.45910534 282.24567032 176.2142334 C282.26268783 155.60791083 282.24279898 134.81508639 279.859375 114.32128906 C279.66541138 112.65211426 279.66541138 112.65211426 279.4675293 110.94921875 C276.34627712 86.02945724 267.90013914 66.03204994 248.734375 49.32128906 C199.97239903 11.76975327 94.16954991 32.25878906 48.109375 32.25878906 Z M-85.03515625 55.17675781 C-100.90219342 71.80782322 -106.9805522 91.82090283 -109.578125 114.19628906 C-109.69760498 115.21158691 -109.81708496 116.22688477 -109.94018555 117.27294922 C-112.09295294 137.70943045 -112.04462304 158.35817568 -112.0234375 178.88378906 C-112.02411442 181.25439463 -112.02508763 183.62500013 -112.02633667 185.99560547 C-112.02779544 190.91992872 -112.02571861 195.8442336 -112.02099609 200.76855469 C-112.01529998 207.00376855 -112.01858888 213.23893932 -112.02456856 219.47415161 C-112.02822392 224.35620433 -112.02701305 229.23824724 -112.02444077 234.12030029 C-112.02378517 236.41623948 -112.02455056 238.71217962 -112.02692032 241.00811768 C-113.60272442 306.5108109 -113.60272442 306.5108109 -83.890625 362.25878906 C-57.95819896 387.28790854 -17.77058645 383.25878906 15.109375 383.25878906 C15.109375 267.75878906 15.109375 152.25878906 15.109375 33.25878906 C-38.76397286 31.22354022 -38.76397286 31.22354022 -85.03515625 55.17675781 Z " fill="#000000" transform="translate(170.890625,47.7412109375)"/>
<path d="M0 0 C1.42855183 -0.01650009 2.85702313 -0.04371189 4.28515625 -0.08203125 C18.8672357 -0.47061638 18.8672357 -0.47061638 24.5456543 3.94116211 C27.50430264 6.87087378 28.78653339 9.13202968 29.40209961 13.25244141 C29.41006223 19.43939535 29.36828175 23.59358318 24.96850586 28.35009766 C18.18227529 34.62736094 11.06172926 33.59505776 2.21850586 33.66259766 C0.96811523 33.69160156 -0.28227539 33.72060547 -1.57055664 33.75048828 C-8.87858088 33.80070198 -13.88755023 33.44115492 -20.03149414 29.35009766 C-24.20064071 24.11193915 -25.57876838 20.02684344 -25.03149414 13.35009766 C-23.22156802 8.07770418 -20.79697032 4.40489008 -16.03149414 1.35009766 C-10.88051999 -0.36689373 -5.39215199 0.04554494 0 0 Z " fill="#000000" transform="translate(115.031494140625,196.64990234375)"/>
<path d="M0 0 C1.42855183 -0.01650009 2.85702313 -0.04371189 4.28515625 -0.08203125 C18.8672357 -0.47061638 18.8672357 -0.47061638 24.5456543 3.94116211 C27.50430264 6.87087378 28.78653339 9.13202968 29.40209961 13.25244141 C29.41006223 19.43939535 29.36828175 23.59358318 24.96850586 28.35009766 C18.18227529 34.62736094 11.06172926 33.59505776 2.21850586 33.66259766 C0.96811523 33.69160156 -0.28227539 33.72060547 -1.57055664 33.75048828 C-8.87858088 33.80070198 -13.88755023 33.44115492 -20.03149414 29.35009766 C-24.20064071 24.11193915 -25.57876838 20.02684344 -25.03149414 13.35009766 C-23.22156802 8.07770418 -20.79697032 4.40489008 -16.03149414 1.35009766 C-10.88051999 -0.36689373 -5.39215199 0.04554494 0 0 Z " fill="#000000" transform="translate(115.031494140625,132.64990234375)"/>
</svg>
