<?xml version="1.0" encoding="UTF-8"?>
<svg version="1.1" xmlns="http://www.w3.org/2000/svg" width="512" height="512">
<path d="M0 0 C0.48227051 0.42877441 0.96454102 0.85754883 1.46142578 1.29931641 C5.02562479 4.47990425 8.52324397 7.72410196 12 11 C12.78246094 11.72832031 13.56492187 12.45664063 14.37109375 13.20703125 C20.98585599 19.56239105 26.50359769 26.68388262 32 34 C32.43489746 34.57411621 32.86979492 35.14823242 33.31787109 35.73974609 C40.07201381 44.70685025 45.81872132 54.04421848 51 64 C51.56267578 65.07628662 51.56267578 65.07628662 52.13671875 66.17431641 C75.55730676 111.60666013 82.71065343 168.24867977 67.91015625 217.63671875 C63.20500268 230.00952999 54.71912884 239.04609587 42.68359375 244.50390625 C35.26349359 247.4668814 28.71040193 249.12196363 20.69346619 249.13130188 C18.82399071 249.13731415 18.82399071 249.13731415 16.91674805 249.14344788 C15.54858396 249.14297288 14.1804199 249.14243679 12.81225586 249.1418457 C11.36137283 249.14488007 9.91049075 249.14840229 8.45960999 249.15237427 C5.34288872 249.16024027 2.22617879 249.16539939 -0.89055061 249.16866493 C-5.81976423 249.17459098 -10.74890627 249.19114473 -15.67808533 249.21000671 C-17.36748214 249.21634328 -19.056879 249.22266891 -20.7462759 249.22898388 C-21.59204626 249.23214969 -22.43781662 249.2353155 -23.30921638 249.23857725 C-34.77945541 249.28062281 -46.24965966 249.31364944 -57.7199707 249.32592773 C-65.46563728 249.334304 -73.21112505 249.35677326 -80.95670217 249.3952834 C-85.05312187 249.4150487 -89.14927426 249.42744687 -93.24574471 249.42244911 C-97.09630255 249.41780793 -100.94635275 249.43157833 -104.79680824 249.45946121 C-106.20890893 249.46638035 -107.62106203 249.46649172 -109.03316116 249.45926094 C-110.96226032 249.4503808 -112.89142719 249.46840627 -114.82044983 249.48774719 C-116.43895135 249.49132972 -116.43895135 249.49132972 -118.09014988 249.49498463 C-121.72760509 250.12627858 -123.39827424 251.42313323 -126 254 C-127.31365462 257.94096387 -127.1443937 261.70254192 -127.1418457 265.81079102 C-127.14532013 266.7120018 -127.14879456 267.61321259 -127.15237427 268.54173279 C-127.15973058 270.50113367 -127.16507663 272.46054289 -127.16866493 274.4199543 C-127.17583515 277.52726599 -127.19150796 280.63442019 -127.21000671 283.74168396 C-127.2624359 292.57752261 -127.31040756 301.41327687 -127.32592773 310.24926758 C-127.33604337 315.65400646 -127.36546291 321.05835159 -127.40724754 326.46293449 C-127.41951578 328.5172521 -127.42468648 330.57162545 -127.42244911 332.62597847 C-127.41148169 345.98863779 -127.41565387 357.02617237 -137.078125 367.24609375 C-143.93690882 373.50543101 -151.17725891 376.20391401 -160.43725586 376.1184082 C-184.28236994 375.01667625 -208.56839282 367.17167597 -230 357 C-230.83595703 356.60329102 -231.67191406 356.20658203 -232.53320312 355.79785156 C-283.32393312 331.27753285 -322.4542327 287.14849475 -341.36254883 234.04956055 C-360.00885419 179.03688968 -356.38684278 118.96106391 -330.75 66.75 C-325.62005435 56.62081936 -319.63655655 47.20135426 -313 38 C-312.5683252 37.39865234 -312.13665039 36.79730469 -311.69189453 36.17773438 C-305.81781107 28.07649939 -299.29495174 20.66546442 -292.38134766 13.44433594 C-291.15491961 12.16198382 -289.94170513 10.86702339 -288.73046875 9.5703125 C-282.40112246 2.97088278 -275.2880725 -2.51578924 -268 -8 C-267.43651855 -8.42958008 -266.87303711 -8.85916016 -266.29248047 -9.30175781 C-256.74021413 -16.5517689 -246.63361671 -22.47580252 -236 -28 C-234.97398682 -28.53753906 -234.97398682 -28.53753906 -233.92724609 -29.0859375 C-159.92590467 -67.35443192 -62.22583419 -55.54122641 0 0 Z M-274 27 C-274.77859375 27.72574219 -275.5571875 28.45148438 -276.359375 29.19921875 C-302.45224948 54.22802211 -319.35860568 89.02136943 -327 124 C-327.16371094 124.71220703 -327.32742188 125.42441406 -327.49609375 126.15820312 C-333.08016066 151.42495216 -332.02686563 180.97811648 -326 206 C-325.79101074 206.88848633 -325.58202148 207.77697266 -325.36669922 208.69238281 C-318.97063587 235.09111618 -306.87613199 259.74835375 -290 281 C-289.55543457 281.56025879 -289.11086914 282.12051758 -288.65283203 282.69775391 C-258.05926304 320.82514296 -214.52433375 345.99863185 -166 353 C-158.78871074 353.76716247 -158.78871074 353.76716247 -152.375 351.125 C-149.60697347 346.84714082 -149.85511596 343.18417121 -149.8581543 338.2109375 C-149.85467987 337.30011917 -149.85120544 336.38930084 -149.84762573 335.45088196 C-149.84026068 333.46745416 -149.8349193 331.48401807 -149.83133507 329.50057983 C-149.82417445 326.35554318 -149.80850835 323.210663 -149.78999329 320.06567383 C-149.73752264 311.12144185 -149.68959818 302.17729253 -149.67407227 293.23291016 C-149.66395703 287.76448767 -149.6345363 282.29645437 -149.59275246 276.82818604 C-149.58048135 274.74874829 -149.57531405 272.66925546 -149.57755089 270.58978271 C-149.57991949 267.66751045 -149.55761705 264.74634127 -149.5300293 261.82421875 C-149.53663071 260.97499344 -149.54323212 260.12576813 -149.55003357 259.25080872 C-149.4250968 251.13188676 -146.88553635 243.34154538 -141.4375 237.1875 C-140.85871094 236.50042969 -140.27992188 235.81335938 -139.68359375 235.10546875 C-130.94482901 228.24929088 -122.1818786 227.27271249 -111.3840332 227.37231445 C-109.94712398 227.36712455 -108.51022135 227.35971599 -107.07333374 227.35028076 C-104.00127485 227.33481636 -100.92976218 227.33481506 -97.85769081 227.34728432 C-92.99433073 227.3669561 -88.13144911 227.35155083 -83.26811218 227.33183289 C-75.57498296 227.30476939 -67.88205137 227.30117622 -60.18888396 227.30760592 C-46.41027563 227.31857236 -32.63172645 227.29385102 -18.85317868 227.25385827 C-14.02409816 227.24083016 -9.19519861 227.2395022 -4.36610949 227.2479912 C-1.35893796 227.25162849 1.64818773 227.24730197 4.65535355 227.2411499 C6.04364124 227.24006914 7.43193668 227.24239891 8.82021141 227.2484951 C22.8308991 227.30704068 33.15943184 225.04518251 43.4921875 215.13671875 C57.78836378 194.87762957 54.28258427 154.3193293 50.375 131 C49.67858988 127.30773613 48.87474884 123.65383597 48 120 C47.68651611 118.66509521 47.68651611 118.66509521 47.36669922 117.30322266 C35.46174133 68.17632153 3.78334643 25.87834067 -38.94580078 -0.75732422 C-115.12410407 -46.84094244 -210.24881711 -33.74576998 -274 27 Z " fill="#000000" transform="translate(395,93)"/>
<path d="M0 0 C6.95093854 5.37714114 10.64079865 13.33737291 12.25 21.8125 C13.27689547 30.14176326 11.3816265 38.20994944 6.5 45.0625 C0.56239316 52.31957503 -6.16391614 57.67129954 -15.75 58.8125 C-24.9713461 59.5671411 -33.4017082 57.62277724 -40.75 51.8125 C-47.44938391 45.93011413 -52.17100485 38.49473149 -53.0859375 29.515625 C-53.21014175 18.53596939 -51.32483207 10.66088007 -43.671875 2.56640625 C-30.94569506 -9.04752626 -14.18394387 -8.91916121 0 0 Z M-28.75 19.8125 C-30.85857453 22.47113745 -30.75023614 23.79951207 -30.6875 27.25 C-29.54175034 31.60384873 -28.43226218 33.22708188 -24.75 35.8125 C-21.94311232 36.45893474 -19.55896558 36.44238925 -16.75 35.8125 C-13.9399654 34.01886089 -12.24059532 32.79369065 -10.75 29.8125 C-10.13217959 23.93612186 -10.13217959 23.93612186 -12.8125 18.875 C-18.8871412 14.60982639 -23.18767318 15.0263118 -28.75 19.8125 Z " fill="#000000" transform="translate(393.75,219.1875)"/>
<path d="M0 0 C6.88804157 4.65089986 11.17637139 10.57118766 14.3125 18.1875 C16.37800543 29.64166647 15.00120424 38.90824117 8.8125 48.75 C3.43535886 55.70093854 -4.52487291 59.39079865 -13 61 C-21.32926326 62.02689547 -29.39744944 60.1316265 -36.25 55.25 C-43.50707503 49.31239316 -48.85879954 42.58608386 -50 33 C-50.7546411 23.7786539 -48.81027724 15.3482918 -43 8 C-31.82593482 -4.72601867 -15.11196009 -7.99212866 0 0 Z M-26 22 C-27.60086627 25.20173254 -27.49917089 28.52577059 -27 32 C-25.20636089 34.8100346 -23.98119065 36.50940468 -21 38 C-15.12362186 38.61782041 -15.12362186 38.61782041 -10.0625 35.9375 C-7.56790906 32.38459775 -6.92384286 30.34095695 -7 26 C-8.6274225 22.80542991 -10.00745242 20.70438861 -12.9375 18.625 C-18.56413135 16.9199602 -21.4160657 18.45786895 -26 22 Z " fill="#000000" transform="translate(156,217)"/>
<path d="M0 0 C0.62132812 0.391875 1.24265625 0.78375 1.8828125 1.1875 C2.50414062 1.538125 3.12546875 1.88875 3.765625 2.25 C10.62521869 6.52611035 14.82446272 13.4804369 16.8828125 21.1875 C17.67485162 30.07491567 17.78212394 38.41951278 12.8828125 46.1875 C12.5321875 46.80882812 12.1815625 47.43015625 11.8203125 48.0703125 C7.54420215 54.92990619 0.5898756 59.12915022 -7.1171875 61.1875 C-16.00460317 61.97953912 -24.34920028 62.08681144 -32.1171875 57.1875 C-33.04917969 56.6615625 -33.04917969 56.6615625 -34 56.125 C-40.85959369 51.84888965 -45.05883772 44.8945631 -47.1171875 37.1875 C-47.90922662 28.30008433 -48.01649894 19.95548722 -43.1171875 12.1875 C-42.7665625 11.56617188 -42.4159375 10.94484375 -42.0546875 10.3046875 C-33.73233229 -3.04575731 -13.65305461 -7.47543675 0 0 Z M-23.1171875 22.1875 C-25.44545125 25.40272137 -25.51429931 28.29580425 -25.1171875 32.1875 C-23.84029904 34.99665461 -22.80618933 36.68856764 -20.3046875 38.5 C-16.25657129 39.77226509 -13.23731641 39.69664951 -9.3671875 37.9375 C-6.94838375 36.0562082 -6.02926845 35.08957573 -5.1171875 32.1875 C-4.62442213 27.55550553 -5.24692908 24.87783225 -8.1171875 21.1875 C-13.10143581 17.57821674 -18.46705481 18.57073013 -23.1171875 22.1875 Z " fill="#000000" transform="translate(335.1171875,130.8125)"/>
<path d="M0 0 C0.62132812 0.391875 1.24265625 0.78375 1.8828125 1.1875 C2.50414062 1.538125 3.12546875 1.88875 3.765625 2.25 C10.62521869 6.52611035 14.82446272 13.4804369 16.8828125 21.1875 C17.67485162 30.07491567 17.78212394 38.41951278 12.8828125 46.1875 C12.5321875 46.80882812 12.1815625 47.43015625 11.8203125 48.0703125 C7.54420215 54.92990619 0.5898756 59.12915022 -7.1171875 61.1875 C-16.00460317 61.97953912 -24.34920028 62.08681144 -32.1171875 57.1875 C-33.04917969 56.6615625 -33.04917969 56.6615625 -34 56.125 C-40.85959369 51.84888965 -45.05883772 44.8945631 -47.1171875 37.1875 C-47.90922662 28.30008433 -48.01649894 19.95548722 -43.1171875 12.1875 C-42.7665625 11.56617188 -42.4159375 10.94484375 -42.0546875 10.3046875 C-33.73233229 -3.04575731 -13.65305461 -7.47543675 0 0 Z M-23.1171875 22.1875 C-25.44545125 25.40272137 -25.51429931 28.29580425 -25.1171875 32.1875 C-23.84029904 34.99665461 -22.80618933 36.68856764 -20.3046875 38.5 C-16.25657129 39.77226509 -13.23731641 39.69664951 -9.3671875 37.9375 C-6.94838375 36.0562082 -6.02926845 35.08957573 -5.1171875 32.1875 C-4.62442213 27.55550553 -5.24692908 24.87783225 -8.1171875 21.1875 C-13.10143581 17.57821674 -18.46705481 18.57073013 -23.1171875 22.1875 Z " fill="#000000" transform="translate(207.1171875,130.8125)"/>
</svg>
