<?xml version="1.0" encoding="UTF-8"?>
<svg version="1.1" xmlns="http://www.w3.org/2000/svg" width="512" height="513">
<path d="M0 0 C3.39453125 1.37109375 3.39453125 1.37109375 6.8125 3.4375 C7.8032251 4.02543335 7.8032251 4.02543335 8.81396484 4.62524414 C11.22213603 6.06313795 13.61018314 7.53181056 16 9 C18.06822693 10.25129591 20.13729616 11.50120027 22.20703125 12.75 C25.70640629 14.86477187 29.20331272 16.98300249 32.69042969 19.11791992 C39.21742115 23.11247203 45.76949589 27.0555711 52.37109375 30.92578125 C54.4322201 32.14003291 56.49286512 33.35509775 58.55340576 34.57034302 C59.88380998 35.35150131 61.21667578 36.12848354 62.55206299 36.90109253 C64.41744504 37.9807801 66.2737362 39.07476023 68.12890625 40.171875 C69.19181885 40.7915918 70.25473145 41.41130859 71.34985352 42.04980469 C74.27757116 44.20425964 75.43679105 45.74053204 77 49 C77.01078701 51.67451096 77.01078701 51.67451096 76.57774353 54.58660889 C75.5091348 65.82920247 75.6148759 75.15885983 82.77468872 84.18029785 C88.82237955 91.37826083 95.70096114 97.83460009 102.53481412 104.27245045 C105.97231254 107.53919411 109.33168262 110.88452332 112.70066833 114.22161865 C119.06869722 120.50628619 125.50220693 126.71904613 131.96331304 132.90782714 C139.32524614 139.96617575 146.6091034 147.10293529 153.88799584 154.24673319 C168.84112766 168.91892258 183.88779261 183.49182508 199 198 C203.79309725 193.97631331 208.39152618 189.80524285 212.88500977 185.45068359 C213.53298019 184.82534729 214.18095062 184.20001099 214.84855652 183.5557251 C220.76079818 177.83911198 226.63400908 172.08253731 232.49453831 166.31296349 C236.4230924 162.44645146 240.36407815 158.59471476 244.3371582 154.77392578 C248.19525265 151.06302949 252.01792565 147.31885286 255.81831169 143.54890823 C257.26757267 142.12293775 258.72894212 140.70916315 260.20248604 139.30830002 C268.37554799 132.15647747 268.37554799 132.15647747 272.4226532 122.60609436 C271.91013602 119.54602317 271.09206629 116.89660326 270 114 C269.66142452 109.55879256 269.66555474 105.14079697 269.6875 100.6875 C269.69241455 99.50269043 269.6973291 98.31788086 269.70239258 97.09716797 C270.02161345 73.21289861 278.80385951 50.63579742 295 33 C295.43795898 32.5143457 295.87591797 32.02869141 296.32714844 31.52832031 C311.09227741 15.30439243 329.49534936 5.3410009 351 1 C351.7535376 0.82944092 352.5070752 0.65888184 353.28344727 0.4831543 C366.24941622 -1.82291675 381.55152856 -1.14206689 394.375 1.75 C395.42337036 1.98529419 395.42337036 1.98529419 396.49291992 2.2253418 C400.95058773 3.37832993 404.41651063 5.11716303 408 8 C409.09375 9.96484375 409.09375 9.96484375 409.5 11.9375 C409.6546875 12.58589844 409.809375 13.23429688 409.96875 13.90234375 C410.02412075 17.61910531 408.70783412 20.18477036 406.30078125 22.95703125 C405.31658203 23.87548828 405.31658203 23.87548828 404.3125 24.8125 C401.71203586 27.25662361 399.35265627 29.76381127 397.0703125 32.5 C393.84494273 36.24021752 390.3188964 39.46657325 386.62890625 42.73046875 C372.01941967 54.86498149 372.01941967 54.86498149 364.27270508 71.41186523 C364.19591545 80.16505725 367.50080902 85.42117545 373.39746094 91.7109375 C376.51406699 94.74769357 379.74501671 97.59524327 383.12060547 100.34033203 C385 102 385 102 387 105 C393.73679709 106.86784692 400.29892225 107.22915237 407 105 C415.21702569 99.86280866 421.70446634 92.24499393 428.18988037 85.12512207 C430.59511583 82.50619474 433.05694629 79.94169089 435.515625 77.37304688 C439.81224553 72.87665011 444.05609225 68.33446881 448.2616272 63.75270081 C450.74179819 61.25208777 451.72444061 61.02079694 455.3125 60.75 C459.29892615 61.02026618 460.95545584 61.46287986 464 64 C468.63889323 71.387867 469.31884367 79.35774867 469.37109375 87.84375 C469.38012222 88.77110962 469.3891507 89.69846924 469.39845276 90.65393066 C469.41289411 92.61040047 469.42182669 94.56691791 469.42553711 96.5234375 C469.43735696 99.46440855 469.48653827 102.40322524 469.53710938 105.34375 C469.63917547 117.14079564 468.43122231 127.04433347 464 138 C463.66476318 138.83789062 463.32952637 139.67578125 462.98413086 140.5390625 C462.14282207 142.49055429 461.23537563 144.36785697 460.25 146.25 C459.74956177 147.22912354 459.74956177 147.22912354 459.23901367 148.22802734 C455.82936349 154.68451506 451.60682948 160.33762512 447 166 C445.824375 167.5778125 445.824375 167.5778125 444.625 169.1875 C426.56914913 188.5330545 400.97509147 199.83636168 374.68359375 201.16796875 C367.05183365 201.21388788 359.8005965 200.59368826 352.27734375 199.4375 C350.65505859 199.2209375 350.65505859 199.2209375 349 199 C348.22703079 198.88305786 347.45406158 198.76611572 346.65766907 198.64562988 C342.7608269 199.16522972 340.82033742 201.52057229 338.19995117 204.23242188 C337.64326752 204.7883754 337.08658386 205.34432892 336.51303101 205.91712952 C334.67757565 207.75606581 332.86045919 209.61207047 331.04296875 211.46875 C329.77325439 212.7477906 328.50243093 214.02573106 327.23054504 215.3026123 C323.88707369 218.66516794 320.55888849 222.04246766 317.23364258 225.42303467 C313.83737511 228.87046295 310.42689674 232.30376797 307.01757812 235.73828125 C300.33104943 242.47842292 293.66058095 249.23422261 287 256 C287.78334717 256.78334717 288.56669434 257.56669434 289.3737793 258.3737793 C292.58251953 261.58251953 295.79125977 264.79125977 299 268 C299.44730469 267.59007812 299.89460938 267.18015625 300.35546875 266.7578125 C304.95411733 262.65923018 308.09621411 259.94814668 314.5 260.0625 C318.84291002 261.22577947 320.44923694 262.28979918 323 266 C323.78638563 269.18128733 323.7964611 271.81957372 323 275 C321.29883993 277.68165579 319.32590646 279.84715205 317 282 C319.99131774 288.6651206 326.07570454 293.11121033 331.5078125 297.79296875 C334.85591026 300.75797695 338.11277538 303.81610858 341.375 306.875 C346.36351257 311.5507359 351.3869886 316.17710902 356.484375 320.734375 C360.03345633 323.93075259 363.53738758 327.17506062 367.04345703 330.41845703 C370.68681361 333.78869523 374.33895531 337.14898754 378 340.5 C382.17599631 344.32328927 386.34152804 348.15765835 390.5 352 C396.15885767 357.22815526 401.83382849 362.43844106 407.51611328 367.64111328 C410.01164407 369.92642496 412.50574527 372.2132958 415 374.5 C415.99999325 375.41667404 416.99999324 376.3333407 418 377.25 C424 382.75 430 388.25 436 393.75 C436.49532227 394.20366943 436.99064453 394.65733887 437.50097656 395.12475586 C438.49923718 396.04058681 439.49598801 396.9580662 440.49121094 397.87719727 C443.00791092 400.1976144 445.545489 402.48228716 448.140625 404.71484375 C455.00066089 410.67669454 460.67545603 416.91113707 465 425 C465.35827881 425.65548828 465.71655762 426.31097656 466.08569336 426.98632812 C469.64583612 434.44069865 469.6437952 441.96332631 469.57641602 450.04882812 C469.56256132 452.36474933 469.59669656 454.67660619 469.63476562 456.9921875 C469.70385808 470.3313164 465.99465533 480.23962607 458 491 C457.29875 491.99 456.5975 492.98 455.875 494 C446.67405197 504.55316403 432.48495608 511.9789399 418.50927734 513.22143555 C407.20108704 513.71078241 396.50696461 513.66813609 386 509 C385.07445312 508.59910156 384.14890625 508.19820313 383.1953125 507.78515625 C372.46168923 502.53997208 364.24943711 493.67208455 356.4765625 484.796875 C353.38239456 481.30251499 350.19397499 477.90295826 347 474.5 C342.41087764 469.60153949 337.87823308 464.66220121 333.40625 459.65625 C330.30779824 456.23588117 327.1548558 452.86829214 324 449.5 C319.41143663 444.60100528 314.87824656 439.6622163 310.40625 434.65625 C307.30779824 431.23588117 304.1548558 427.86829214 301 424.5 C297.12830385 420.36637092 293.27344012 416.22400014 289.5 412 C285.17170659 407.15681666 280.73776298 402.41667626 276.29956055 397.67456055 C270.82402151 391.82114363 265.40742324 385.91635719 260 380 C259.0524283 378.96843302 258.10450613 377.93718786 257.15625 376.90625 C251.71403167 370.98727996 246.31654526 365.032527 241 359 C240.51789063 359.42152344 240.03578125 359.84304688 239.5390625 360.27734375 C238.90742188 360.82519531 238.27578125 361.37304688 237.625 361.9375 C236.99851562 362.48277344 236.37203125 363.02804687 235.7265625 363.58984375 C232.60703848 366.13769029 230.05303098 366.34635719 226.03515625 366.2734375 C222.68477377 365.82329014 221.18913139 364.51106247 219 362 C217.11403413 357.8351587 216.74831198 355.84389513 218.0625 351.4375 C220 348 220 348 225 342 C221.37 338.04 217.74 334.08 214 330 C204.30635153 338.0644422 195.37413518 346.99994393 186.37273312 355.81976509 C183.35200748 358.77843824 180.31918319 361.72195879 177.25415039 364.63476562 C174.27121793 367.4702627 171.32425114 370.33893666 168.39895821 373.23382187 C167.28460603 374.32493316 166.15818366 375.40386437 165.01957512 376.46963882 C158.49810371 382.27334397 158.49810371 382.27334397 155.77876282 390.19248962 C156.29373479 393.24254258 157.0659334 396.05504172 158 399 C158.33857424 403.44119114 158.33476007 407.85921465 158.3125 412.3125 C158.30686035 413.49875977 158.3012207 414.68501953 158.29541016 415.90722656 C157.92264598 442.85696898 146.88437401 466.14233656 128 485 C127.40832031 485.66257812 126.81664062 486.32515625 126.20703125 487.0078125 C116.43486566 497.80994927 102.56670745 504.39818791 89 509 C88.35434082 509.22445801 87.70868164 509.44891602 87.04345703 509.68017578 C68.35557108 515.89040669 44.54915001 515.63347086 26 509 C20.51741506 505.9294992 20.51741506 505.9294992 18.90625 503.03515625 C18.7721875 502.38417969 18.638125 501.73320312 18.5 501.0625 C18.3453125 500.41410156 18.190625 499.76570313 18.03125 499.09765625 C17.97556649 495.35990064 19.3735298 492.70139157 21.83499146 489.94555664 C22.94751785 488.93803345 22.94751785 488.93803345 24.08251953 487.91015625 C24.92324005 487.13744385 25.76396057 486.36473145 26.63015747 485.56860352 C27.99272171 484.32808228 27.99272171 484.32808228 29.3828125 483.0625 C31.29315988 481.2632499 33.20081066 479.46148705 35.10546875 477.65625 C38.09827098 474.82432735 41.10236241 472.00976975 44.16552734 469.25390625 C57.74711677 457.64241607 57.74711677 457.64241607 63.89395142 441.58305359 C63.85780307 432.75676754 61.73550648 426.07702474 55.51171875 419.68945312 C54.60035156 418.86380859 53.68898438 418.03816406 52.75 417.1875 C51.91597656 416.28064453 51.08195312 415.37378906 50.22265625 414.43945312 C44.0724369 408.50022671 37.53509745 406.12078245 29.10531616 406.07061768 C16.41589575 407.35293983 7.91046604 418.9820874 -0.18988037 427.87487793 C-2.59511583 430.49380526 -5.05694629 433.05830911 -7.515625 435.62695312 C-11.81224553 440.12334989 -16.05609225 444.66553119 -20.2616272 449.24729919 C-22.70372106 451.70952126 -23.73186403 451.97421769 -27.25 452.3125 C-31.99176748 451.91735271 -33.6100874 451.3899126 -37 448 C-38.83684933 443.77825777 -39.95395134 439.47588128 -41 435 C-41.226875 434.05898438 -41.45375 433.11796875 -41.6875 432.1484375 C-47.02558959 405.8286902 -40.63681425 378.30321967 -26.32421875 355.89746094 C-22.48777059 350.40024945 -17.72799954 345.72131213 -13 341 C-12.40832031 340.33742188 -11.81664063 339.67484375 -11.20703125 338.9921875 C3.43230135 322.80989183 28.66655013 312.99283504 50.11083984 311.89160156 C52.3043053 311.83085178 54.49320904 311.81058922 56.6875 311.8125 C57.46697998 311.81185547 58.24645996 311.81121094 59.04956055 311.81054688 C64.91088604 311.86345452 70.53282085 312.47676628 76.30078125 313.5625 C77.19152344 313.706875 78.08226563 313.85125 79 314 C79.73453903 314.14344849 80.46907806 314.28689697 81.22587585 314.43469238 C85.70739993 313.73245835 88.00393077 310.64944927 91.08520508 307.48242188 C91.77843872 306.78991837 92.47167236 306.09741486 93.18591309 305.38392639 C95.47583486 303.09051942 97.74753698 300.77990711 100.01953125 298.46875 C101.60313055 296.87582602 103.18783692 295.28400192 104.77360535 293.6932373 C108.94561807 289.50212817 113.10239938 285.29622137 117.25622559 281.08709717 C121.49703684 276.79515154 125.75202656 272.51731435 130.00585938 268.23828125 C138.35120776 259.83929838 146.68053927 251.42462064 155 243 C150.6780788 237.83189505 146.14176891 233.00818792 141.36157227 228.26391602 C140.62091522 227.52471924 139.88025818 226.78552246 139.11715698 226.02392578 C137.51905106 224.42960603 135.91979158 222.83644191 134.31949043 221.24432564 C131.78171577 218.7193913 129.24714517 216.19127932 126.71336365 213.66233826 C120.42087213 207.38317078 114.12295268 201.1094565 107.82519531 194.83557129 C102.49734163 189.52749983 97.17157425 184.21735148 91.84852409 178.90446281 C89.36075001 176.42313511 86.86996502 173.94485763 84.37904358 171.46669006 C82.84182058 169.93310245 81.30473941 168.39937265 79.76782227 166.86547852 C79.0824086 166.18523117 78.39699493 165.50498383 77.69081116 164.80412292 C73.25532511 160.36911878 69.07354582 155.76867992 65 151 C64.45110391 150.35860266 63.90220781 149.71720531 63.3366785 149.05637169 C62.85593593 148.49450975 62.37519335 147.93264782 61.87988281 147.35375977 C47.29891343 128.99892771 47.29891343 128.99892771 27.234375 118.921875 C21.63669179 118.58099519 16.20073856 118.95607178 10.68359375 119.95629883 C7.01391754 120.01605793 5.06713154 118.98078555 2 117 C0.05981445 114.59692383 0.05981445 114.59692383 -1.63671875 111.70703125 C-2.28713135 110.61720947 -2.93754395 109.5273877 -3.60766602 108.40454102 C-4.3011841 107.20733306 -4.99445525 106.00998202 -5.6875 104.8125 C-6.42164107 103.5706721 -7.15726819 102.32972167 -7.89428711 101.08959961 C-9.45918216 98.45070401 -11.01481233 95.80665575 -12.56347656 93.15820312 C-15.04169748 88.92233437 -17.54546487 84.70193531 -20.0546875 80.484375 C-22.50851556 76.35974261 -24.9621995 72.23509769 -27.40307617 68.1027832 C-28.15542536 66.83023448 -28.90778519 65.55769205 -29.66015625 64.28515625 C-30.02135056 63.67304291 -30.38254486 63.06092957 -30.75468445 62.43026733 C-32.56302781 59.37720818 -34.39887118 56.34661432 -36.29150391 53.3449707 C-36.65948593 52.75908676 -37.02746796 52.17320282 -37.40660095 51.56956482 C-38.41258921 49.97479534 -39.42706304 48.38538751 -40.44213867 46.79638672 C-42.53098162 43.04687925 -43.92512018 39.28266841 -43 35 C-40.1343382 30.23412694 -36.75407089 26.47302501 -32.80859375 22.578125 C-32.22207535 21.99206482 -31.63555695 21.40600464 -31.03126526 20.80218506 C-29.79901215 19.57293587 -28.56434681 18.34610051 -27.32739258 17.12158203 C-25.43443993 15.24696958 -23.5496957 13.36439393 -21.66601562 11.48046875 C-20.4640138 10.28337991 -19.26155561 9.08674909 -18.05859375 7.890625 C-17.49603378 7.32917786 -16.93347382 6.76773071 -16.35386658 6.18927002 C-10.83286182 0.73504885 -7.63839776 -0.91351435 0 0 Z M318 40 C317.19304687 40.71542969 316.38609375 41.43085937 315.5546875 42.16796875 C305.50582453 51.58685713 298.48565465 63.00039693 294 76 C293.68160156 76.85980469 293.36320312 77.71960938 293.03515625 78.60546875 C288.85187436 91.96498189 289.6791049 107.95412053 293.3046875 121.34765625 C294.36482855 125.39167743 294.96460289 128.89527291 294 133 C292.69567627 134.86509043 292.69567627 134.86509043 290.97286892 136.73932743 C290.33502622 137.43640564 289.69718351 138.13348385 289.04001224 138.85168564 C285.67245949 142.39801824 282.26281405 145.89576973 278.80909729 149.35826111 C278.01246813 150.16068365 277.21583897 150.96310619 276.39506954 151.78984457 C273.74303062 154.45982443 271.08750384 157.12630598 268.43188477 159.79272461 C267.00922345 161.22334629 265.58693927 162.65434211 264.16470522 164.08538853 C257.42883207 170.86291434 250.68583511 177.63333332 243.94140625 184.40234375 C243.40890679 184.93681811 242.87640732 185.47129247 242.32777151 186.02196303 C231.7439345 196.64495794 221.15734075 207.26520228 210.56504917 217.87976742 C208.24278922 220.20699601 205.92056723 222.53426247 203.59838867 224.86157227 C202.73271934 225.7291476 202.73271934 225.7291476 201.84956174 226.61424971 C192.48403747 236.00117232 183.13242565 245.40183317 173.78621925 254.80798583 C164.1803309 264.47497548 154.56128374 274.12871618 144.92944187 283.76984793 C139.52564935 289.17955061 134.12792482 294.59502456 128.74508858 300.02558708 C124.16584451 304.64539818 119.57495143 309.2532149 114.96830935 313.84571349 C112.61904326 316.18850797 110.27780669 318.53844074 107.94764137 320.9002552 C105.42023741 323.46016977 102.87225333 325.99765569 100.31788635 328.53062439 C99.587229 329.28098951 98.85657166 330.03135463 98.10377318 330.80445808 C93.4465812 335.36354101 90.57803842 336.99919657 84 337 C80.83984375 336.4765625 80.83984375 336.4765625 77.9375 335.625 C76.90238281 335.34269531 75.86726563 335.06039063 74.80078125 334.76953125 C73.87652344 334.51558594 72.95226562 334.26164062 72 334 C55.55332182 330.64975074 37.9012259 333.54938705 23 341 C22.01515625 341.49242187 21.0303125 341.98484375 20.015625 342.4921875 C11.87908564 346.89772306 5.49290693 352.50709307 -1 359 C-1.680625 359.680625 -2.36125 360.36125 -3.0625 361.0625 C-18.3332145 377.42397982 -22.53079256 398.41443594 -22 420 C-17.40001643 416.26168482 -13.17842522 412.23912336 -9.0234375 408.015625 C-8.48680481 407.47111694 -7.95017212 406.92660889 -7.39727783 406.36560059 C-5.15102748 404.08281978 -2.90775847 401.79728547 -0.67382812 399.50244141 C0.9736991 397.81253559 2.63057658 396.13226771 4.2890625 394.453125 C5.03768051 393.67657562 5.03768051 393.67657562 5.80142212 392.88433838 C12.1381946 386.50172957 17.88272306 386.68877618 26.47265625 386.62890625 C27.55764404 386.62914795 27.55764404 386.62914795 28.66455078 386.62939453 C30.86179426 386.62502625 33.0570182 386.58868409 35.25390625 386.55078125 C36.66665987 386.54491089 38.07942293 386.54094296 39.4921875 386.5390625 C40.76433105 386.53084473 42.03647461 386.52262695 43.34716797 386.51416016 C50.83429032 387.50997445 55.44723678 392.00486903 60.51953125 397.19140625 C61.10417648 397.77792465 61.68882172 398.36444305 62.29118347 398.96873474 C63.51561675 400.19984632 64.73646965 401.43452842 65.95385742 402.67260742 C67.81755338 404.56763834 69.69187616 406.4516226 71.56835938 408.33398438 C72.76104535 409.53583477 73.95312442 410.73828782 75.14453125 411.94140625 C75.70284134 412.50396622 76.26115143 413.06652618 76.83638 413.64613342 C83.95002504 420.89176499 83.53246044 426.87849092 83.64526367 436.48510742 C83.67322309 438.19127858 83.72080016 439.89725085 83.78881836 441.60229492 C84.42230355 457.54474753 84.42230355 457.54474753 79.2109375 463.4296875 C77.50245486 464.98501561 75.7630017 466.50675406 74 468 C72.51276217 469.45310752 71.06005563 470.93607906 69.60682678 472.42314148 C67.08236008 475.00174543 64.50597529 477.52785754 61.9375 480.0625 C59.86043159 482.11303248 57.7866895 484.16684867 55.71484375 486.22265625 C54.80855225 487.11734619 53.90226074 488.01203613 52.96850586 488.93383789 C50.88503504 490.64503885 50.88503504 490.64503885 51 492 C73.7993195 492.94997165 93.80566317 487.77655818 111 472 C112.13308594 471.00419922 112.13308594 471.00419922 113.2890625 469.98828125 C122.98004509 460.97999675 129.70415517 449.44952679 134 437 C134.31839844 436.14019531 134.63679687 435.28039062 134.96484375 434.39453125 C139.14812564 421.03501811 138.3208951 405.04587947 134.6953125 391.65234375 C133.63517145 387.60832257 133.03539711 384.10472709 134 380 C135.30432373 378.13490957 135.30432373 378.13490957 137.02713108 376.26067257 C137.66497378 375.56359436 138.30281649 374.86651615 138.95998776 374.14831436 C142.32754051 370.60198176 145.73718595 367.10423027 149.19090271 363.64173889 C149.98753187 362.83931635 150.78416103 362.03689381 151.60493046 361.21015543 C154.25696938 358.54017557 156.91249616 355.87369402 159.56811523 353.20727539 C160.99077655 351.77665371 162.41306073 350.34565789 163.83529478 348.91461147 C170.57116793 342.13708566 177.31416489 335.36666668 184.05859375 328.59765625 C184.85734294 327.79594471 184.85734294 327.79594471 185.67222849 326.97803697 C196.2560655 316.35504206 206.84265925 305.73479772 217.43495083 295.12023258 C219.75721078 292.79300399 222.07943277 290.46573753 224.40161133 288.13842773 C224.97872421 287.56004418 225.5558371 286.98166062 226.15043826 286.38575029 C235.51596253 276.99882768 244.86757435 267.59816683 254.21378075 258.19201417 C263.8196691 248.52502452 273.43871626 238.87128382 283.07055813 229.23015207 C288.47435065 223.82044939 293.87207518 218.40497544 299.25491142 212.97441292 C303.83415549 208.35460182 308.42504857 203.7467851 313.03169065 199.15428651 C315.38095674 196.81149203 317.72219331 194.46155926 320.05235863 192.0997448 C322.57976259 189.53983023 325.12774667 187.00234431 327.68211365 184.46937561 C328.412771 183.71901049 329.14342834 182.96864537 329.89622682 182.19554192 C334.5534188 177.63645899 337.42196158 176.00080343 344 176 C347.16015625 176.5234375 347.16015625 176.5234375 350.0625 177.375 C351.09761719 177.65730469 352.13273437 177.93960938 353.19921875 178.23046875 C354.12347656 178.48441406 355.04773438 178.73835937 356 179 C376.84868572 183.2469545 396.7771714 177.30971319 414.6875 166.875 C432.44555824 154.9291569 444.68892192 135.90407645 449 115 C449.86328678 109.9681024 450.10765751 105.165299 450.0625 100.0625 C450.05573242 99.03672852 450.05573242 99.03672852 450.04882812 97.99023438 C450.0371956 96.32678396 450.01926694 94.6633795 450 93 C445.40001643 96.73831518 441.17842522 100.76087664 437.0234375 104.984375 C436.48680481 105.52888306 435.95017212 106.07339111 435.39727783 106.63439941 C433.15102748 108.91718022 430.90775847 111.20271453 428.67382812 113.49755859 C427.0263009 115.18746441 425.36942342 116.86773229 423.7109375 118.546875 C423.21185883 119.06457458 422.71278015 119.58227417 422.19857788 120.11566162 C415.8618054 126.49827043 410.11727694 126.31122382 401.52734375 126.37109375 C400.80401855 126.37093262 400.08069336 126.37077148 399.33544922 126.37060547 C397.13820574 126.37497375 394.9429818 126.41131591 392.74609375 126.44921875 C391.33334013 126.45508911 389.92057707 126.45905704 388.5078125 126.4609375 C386.59959717 126.47326416 386.59959717 126.47326416 384.65283203 126.48583984 C378.90449324 125.72129004 374.50924558 122.96379892 370.5 118.75 C369.91605469 118.14027344 369.33210938 117.53054687 368.73046875 116.90234375 C367.05875468 115.06459036 365.43084471 113.1973034 363.8125 111.3125 C360.12745736 107.02169693 356.13044719 103.07379914 352.0871582 99.12426758 C346.94724259 94.07061165 345.66580977 90.97742288 345.55859375 83.89453125 C345.54482193 83.09649582 345.53105011 82.29846039 345.51686096 81.47624207 C345.49359074 79.78590822 345.47632437 78.09548265 345.46459961 76.4050293 C345.4377659 73.837938 345.36289353 71.27503089 345.28710938 68.70898438 C345.05936469 54.94651795 345.05936469 54.94651795 348.93359375 50.421875 C350.26014618 49.24774572 351.61822065 48.10860577 353 47 C354.56645962 45.44799019 356.12051262 43.88339022 357.6640625 42.30859375 C360.15203383 39.85813944 362.6474202 37.41565245 365.1484375 34.97851562 C369.62284605 30.56466834 373.54361755 26.25511209 377 21 C355.02561388 20.08440058 334.70636109 24.7751464 318 40 Z M-4.58227539 24.46875 C-5.57988892 25.47421875 -5.57988892 25.47421875 -6.59765625 26.5 C-7.31630859 27.221875 -8.03496094 27.94375 -8.77539062 28.6875 C-9.53013672 29.450625 -10.28488281 30.21375 -11.0625 31 C-11.82111328 31.763125 -12.57972656 32.52625 -13.36132812 33.3125 C-15.24312505 35.20613213 -17.12255805 37.10205162 -19 39 C-17.55795559 42.88568175 -15.74340769 46.34447742 -13.6484375 49.91796875 C-13.31813538 50.48475845 -12.98783325 51.05154816 -12.64752197 51.63551331 C-10.80567529 54.78731663 -8.93610066 57.92140332 -7.04833984 61.04589844 C-6.25550517 62.36222104 -5.46335614 63.67895685 -4.671875 64.99609375 C-4.27437042 65.65707062 -3.87686584 66.31804749 -3.46731567 66.99905396 C-1.17932988 70.85407306 0.90873065 74.74557298 2.84063721 78.79034424 C8.00123275 89.92004014 8.00123275 89.92004014 16 99 C21.7595631 100.91955882 27.34569456 100.84174846 33.33349609 100.18066406 C41.88033889 99.25027668 41.88033889 99.25027668 45.46212482 101.64863491 C46.22899207 102.39505277 46.99585932 103.14147062 47.78596497 103.9105072 C48.64677485 104.73533033 49.50758472 105.56015347 50.39447975 106.40997124 C51.25430143 107.26468073 52.11412312 108.11939022 53 109 C53.79049932 109.76702806 54.58099865 110.53405613 55.3954525 111.32432747 C57.86499535 113.73558088 60.30724194 116.17198277 62.74487305 118.61547852 C64.12008118 119.98805817 64.12008118 119.98805817 65.52307129 121.3883667 C68.0065942 123.86738436 70.48700829 126.34948973 72.9666822 128.83235669 C75.5790462 131.4472789 78.19387927 134.05973043 80.80830383 136.67259216 C85.19341712 141.0558944 89.57643652 145.44128205 93.95825195 149.82788086 C99.00628376 154.88136003 104.05791674 159.93121785 109.11142129 164.97922379 C113.47278262 169.33603166 117.83217297 173.69480449 122.18995315 178.05519432 C124.78291606 180.64970687 127.37652752 183.24356142 129.97192955 185.83563423 C132.86527274 188.72552392 135.75447161 191.6195237 138.64331055 194.51391602 C139.49075333 195.35933456 140.33819611 196.20475311 141.21131897 197.07579041 C145.4976221 201.37730611 149.63428427 205.74811942 153.58562279 210.36033535 C155.29858375 212.34614332 157.10252964 214.21666654 158.96484375 216.0625 C159.94614258 217.03896484 159.94614258 217.03896484 160.94726562 218.03515625 C161.60404297 218.68355469 162.26082031 219.33195313 162.9375 220 C163.96327148 221.01900391 163.96327148 221.01900391 165.00976562 222.05859375 C166.67087159 223.70808359 168.33428513 225.3551668 170 227 C173.85027991 225.21799313 176.2799142 222.92324595 179.25 219.875 C180.14203125 218.96492187 181.0340625 218.05484375 181.953125 217.1171875 C182.62859375 216.41851562 183.3040625 215.71984375 184 215 C182.42703328 211.2005607 180.04735923 208.80842096 177.14808655 205.92776489 C176.65030101 205.4303872 176.15251547 204.93300951 175.63964552 204.42055976 C173.97157267 202.75621541 172.29646797 201.09913344 170.62133789 199.44189453 C169.42350459 198.24953706 168.22613326 197.05671535 167.02919006 195.86346436 C164.4510257 193.2950115 161.86983681 190.72965076 159.28633308 188.16656876 C155.20065894 184.11270414 151.12315047 180.05069346 147.04698181 175.98727417 C136.92043752 165.89481948 126.7846472 155.81166403 116.64398193 145.73339844 C108.76466104 137.90253628 100.88855015 130.06851242 93.02294534 122.22387016 C88.9724241 118.18486803 84.91505849 114.1529099 80.85242283 110.12609506 C78.32475803 107.61763848 75.80338434 105.1029313 73.28371239 102.58644867 C72.11528717 101.42203846 70.94428053 100.26021188 69.77050018 99.1012001 C68.16626046 97.51641944 66.57159254 95.92257267 64.97889709 94.32620239 C64.08459016 93.43725847 63.19028322 92.54831455 62.26887608 91.63243294 C59.30211288 88.19028586 56.9441971 84.97838453 57.07543945 80.32543945 C57.25292725 79.43042725 57.43041504 78.53541504 57.61328125 77.61328125 C58.51199497 70.70479787 58.94817827 64.47369159 56 58 C48.92845915 50.9059064 39.47806833 46.69085873 30.57806396 42.31561279 C23.69538057 38.9279492 17.2346626 35.00378661 10.7651062 30.89285278 C8.07559499 29.18628028 5.36856513 27.50839699 2.66015625 25.83203125 C1.77980713 25.28264893 0.89945801 24.7332666 -0.00756836 24.16723633 C-2.49390859 22.56080007 -2.49390859 22.56080007 -4.58227539 24.46875 Z M268.20297241 273.55651855 C267.47905304 274.28487915 266.75513367 275.01323975 266.00927734 275.76367188 C265.18857758 276.58452271 264.36787781 277.40537354 263.52230835 278.25109863 C262.63580597 279.14792358 261.74930359 280.04474854 260.8359375 280.96875 C259.92872955 281.87878784 259.02152161 282.78882568 258.08682251 283.72644043 C255.67231764 286.14858996 253.26387808 288.57668511 250.85662842 291.00604248 C248.40022281 293.48288863 245.93816197 295.95409884 243.4765625 298.42578125 C238.64547329 303.27833503 233.82076458 308.13718971 229 313 C230.59213193 316.38201132 232.34788868 318.53355616 235.0625 321.125 C238.90277778 324.80555556 238.90277778 324.80555556 240 327 C243.35999018 325.54131246 245.55203106 323.69131052 248.12597656 321.10107422 C248.92650452 320.3003952 249.72703247 319.49971619 250.55181885 318.67477417 C251.40612488 317.81014557 252.26043091 316.94551697 253.140625 316.0546875 C254.02280701 315.1696756 254.90498901 314.2846637 255.81390381 313.37283325 C258.15194543 311.02549869 260.48555874 308.67393215 262.81713867 306.32019043 C265.19996526 303.91686073 267.58850348 301.51922233 269.9765625 299.12109375 C274.65631862 294.41928533 279.33031867 289.71181336 284 285 C282.25354101 281.21799921 280.12677729 279.03137748 277 276.25 C276.113125 275.45078125 275.22625 274.6515625 274.3125 273.828125 C271.51332639 271.61526478 270.92107447 271.20219951 268.20297241 273.55651855 Z M297.12704468 300.63244629 C296.36759552 301.39633667 295.60814636 302.16022705 294.82568359 302.94726562 C293.96494232 303.80815796 293.10420105 304.66905029 292.21737671 305.55603027 C291.27762353 306.5059979 290.33797972 307.45607373 289.3984375 308.40625 C288.43766135 309.37075516 287.4764435 310.33482051 286.51480103 311.29846191 C283.98193027 313.83897797 281.45512198 316.38544242 278.92950439 318.9331665 C276.35245154 321.5306585 273.76974516 324.12251535 271.1875 326.71484375 C266.11943078 331.80437868 261.05774909 336.90020708 256 342 C257.36740123 344.83129491 258.69778219 346.96907821 260.87109375 349.25 C261.43973145 349.85215332 262.00836914 350.45430664 262.59423828 351.07470703 C263.50665283 352.02772705 263.50665283 352.02772705 264.4375 353 C265.71529799 354.35113306 266.99263673 355.70270058 268.26953125 357.0546875 C269.22013428 358.05773926 269.22013428 358.05773926 270.18994141 359.08105469 C272.69593408 361.73779901 275.16201454 364.42830059 277.625 367.125 C281.40559293 371.26036998 285.19708528 375.38515123 289 379.5 C293.29650679 384.1498334 297.58028426 388.81103094 301.85546875 393.48046875 C305.22787289 397.16209047 308.61171781 400.83299023 312 404.5 C315.84236736 408.65844899 319.67661574 412.82409049 323.5 417 C329.31495038 423.35033154 335.15641886 429.67602169 341 436 C347.29495129 442.81245531 353.58510486 449.62898264 359.84692383 456.47192383 C362.26044493 459.10789728 364.68033075 461.73769279 367.109375 464.359375 C367.62910889 464.92068115 368.14884277 465.4819873 368.68432617 466.06030273 C369.71993221 467.17794336 370.75653802 468.29465851 371.79418945 469.41040039 C374.51908155 472.35124922 377.13572387 475.3435451 379.6875 478.4375 C383.25525541 482.53093918 387.27684838 485.35691184 392 488 C392.73734375 488.41507813 393.4746875 488.83015625 394.234375 489.2578125 C403.30201433 493.60906225 414.54118232 493.50601336 424 490.375 C434.1579905 486.02592024 442.61212598 478.17791256 447.22265625 468.06640625 C451.21699101 457.44830028 450.59325739 447.6504149 447 437 C445.6056448 434.08767655 443.95976837 431.56106094 442 429 C441.54625 428.40703125 441.0925 427.8140625 440.625 427.203125 C437.57825092 423.46092232 434.19623997 420.32664934 430.52734375 417.20703125 C427.15125525 414.25882414 423.89264579 411.19239557 420.625 408.125 C415.63677715 403.44896191 410.61300291 398.8228834 405.515625 394.265625 C401.96654367 391.06924741 398.46261242 387.82493938 394.95654297 384.58154297 C391.31318639 381.21130477 387.66104469 377.85101246 384 374.5 C379.82400369 370.67671073 375.65847196 366.84234165 371.5 363 C365.84114233 357.77184474 360.16617151 352.56155894 354.48388672 347.35888672 C351.98835593 345.07357504 349.49425473 342.7867042 347 340.5 C346.00000675 339.58332596 345.00000676 338.6666593 344 337.75 C326 321.25 326 321.25 324.49804688 319.87304688 C323.50477374 318.96265442 322.51128647 318.05249552 321.51757812 317.14257812 C318.9127916 314.7568538 316.31259469 312.36637004 313.71875 309.96875 C313.17992187 309.47181641 312.64109375 308.97488281 312.0859375 308.46289062 C310.58742234 307.08063957 309.09053531 305.69662405 307.59375 304.3125 C302.761124 299.1552964 302.761124 299.1552964 297.12704468 300.63244629 Z " fill="#000000" transform="translate(43,0)"/>
<path d="M0 0 C3.7473886 3.26899857 4.74595753 4.91124657 5.875 9.75 C5.59725266 13.7336369 3.86718929 15.63902289 1.19268799 18.50817871 C-0.03690769 19.82914803 -0.03690769 19.82914803 -1.29134369 21.17680359 C-6.12468008 26.21452576 -11.02396612 31.18050465 -15.95800781 36.11914062 C-17.13366134 37.29943472 -18.30912165 38.4799213 -19.48440552 39.6605835 C-22.64690302 42.83607144 -25.81261558 46.00833382 -28.9793787 49.17956734 C-30.96037808 51.16351388 -32.94079598 53.14803912 -34.9210434 55.13273621 C-41.1257483 61.35106891 -47.33241656 67.56743179 -53.5419991 73.7808938 C-60.69653572 80.93992644 -67.84445353 88.10548312 -74.9867909 95.27668619 C-80.52311607 100.83460652 -86.06517192 106.38676943 -91.61163592 111.93457174 C-94.91903074 115.24301436 -98.223952 118.55384087 -101.52292633 121.87068176 C-104.61903761 124.98324031 -107.72219117 128.08859905 -110.8309288 131.18854523 C-111.9699327 132.32677747 -113.1063746 133.4675801 -114.24004745 134.61112213 C-115.78773003 136.17148612 -117.34438143 137.72231972 -118.90362549 139.27111816 C-119.77224842 140.14120766 -120.64087135 141.01129715 -121.53581619 141.90775299 C-125.16482196 144.9890071 -127.75113389 146 -132.5 146 C-136.10595407 144.96972741 -137.91777428 143.88296979 -140.09765625 140.79296875 C-141.35880631 138.2870472 -141.92563799 135.97628367 -141.7301445 133.17238617 C-140.76295791 130.29473281 -139.26181275 128.7115403 -137.19268799 126.49182129 C-136.37295753 125.61117508 -135.55322708 124.73052887 -134.70865631 123.82319641 C-129.87531992 118.78547424 -124.97603388 113.81949535 -120.04199219 108.88085938 C-118.86633866 107.70056528 -117.69087835 106.5200787 -116.51559448 105.3394165 C-113.35309698 102.16392856 -110.18738442 98.99166618 -107.0206213 95.82043266 C-105.03962192 93.83648612 -103.05920402 91.85196088 -101.0789566 89.86726379 C-94.8742517 83.64893109 -88.66758344 77.43256821 -82.4580009 71.2191062 C-75.30346428 64.06007356 -68.15554647 56.89451688 -61.0132091 49.72331381 C-55.47688393 44.16539348 -49.93482808 38.61323057 -44.38836408 33.06542826 C-41.08096926 29.75698564 -37.776048 26.44615913 -34.47707367 23.12931824 C-31.38096239 20.01675969 -28.27780883 16.91140095 -25.1690712 13.81145477 C-24.0300673 12.67322253 -22.8936254 11.5324199 -21.75995255 10.38887787 C-20.21226997 8.82851388 -18.65561857 7.27768028 -17.09637451 5.72888184 C-16.22775158 4.85879234 -15.35912865 3.98870285 -14.46418381 3.09224701 C-9.74073889 -0.91825476 -5.9951488 -1.71289966 0 0 Z " fill="#000000" transform="translate(325,184)"/>
<path d="M0 0 C2.24382782 1.78660202 2.24382782 1.78660202 4.68347168 4.03729248 C5.56699814 4.85200768 6.4505246 5.66672287 7.36082458 6.5061264 C11.23506778 10.16707018 15.04261998 13.88713636 18.81445312 17.65332031 C19.63200073 18.46590302 20.44954834 19.27848572 21.29187012 20.11569214 C23.95772883 22.7671088 26.61982477 25.42225858 29.28125 28.078125 C30.19631821 28.99036583 31.11138641 29.90260666 32.05418396 30.84249115 C36.38866812 35.16359372 40.72142007 39.48641546 45.0511632 43.8122685 C50.03002748 48.78663219 55.01540839 53.75434329 60.0064168 58.7165215 C64.349557 63.03544794 68.6844266 67.36258865 73.01634216 71.69277191 C74.85429324 73.52769526 76.69474641 75.36011591 78.53773499 77.18997955 C81.10583414 79.74106915 83.66435244 82.30140315 86.22070312 84.86425781 C86.98326416 85.61760406 87.7458252 86.37095032 88.53149414 87.14712524 C89.22658081 87.84778107 89.92166748 88.54843689 90.63781738 89.27032471 C91.54473705 90.17504454 91.54473705 90.17504454 92.46997833 91.09804153 C95.18173032 94.46900011 96.01440096 97.19354625 95.9375 101.5 C94.77422053 105.84291002 93.71020082 107.44923694 90 110 C86.70992447 111.03179883 84.3152348 110.9099771 81 110 C78.65563965 108.25213051 78.65563965 108.25213051 76.25585938 105.98989868 C75.381875 105.17176319 74.50789063 104.3536277 73.60742188 103.51070023 C72.74697266 102.68216915 71.88652344 101.85363808 71 101 C70.25556641 100.28564159 69.51113281 99.57128319 68.74414062 98.83527756 C66.5117006 96.66770095 64.30020248 94.4806359 62.09375 92.28662109 C60.85279823 91.05793556 60.85279823 91.05793556 59.58677673 89.8044281 C56.88821567 87.13040354 54.19356657 84.45249257 51.5 81.7734375 C50.57389923 80.85266041 49.64779846 79.93188332 48.69363403 78.98320389 C44.80507415 75.1161814 40.91791392 71.247761 37.03443909 67.37563133 C31.50004886 61.85753094 25.95727566 56.3481617 20.40274239 50.85033548 C16.47614849 46.96245762 12.55920118 43.06502641 8.64927483 39.16038764 C6.32144176 36.83619747 3.9884401 34.51763611 1.64746094 32.20667648 C-0.95652085 29.6342335 -3.54437111 27.04654992 -6.12890625 24.45458984 C-6.90081802 23.6990834 -7.6727298 22.94357697 -8.46803284 22.16517639 C-12.62899776 17.95501051 -15.17392787 14.94392844 -16 9 C-14.84613016 4.67298812 -13.8861144 2.64444684 -10.25 0 C-6.02180506 -1.30098306 -4.24624987 -1.41541662 0 0 Z " fill="#000000" transform="translate(361,346)"/>
<path d="M0 0 C5.57894737 3.15789474 5.57894737 3.15789474 7 6 C7.42071592 9.05920574 7.48514117 11.9467746 7 15 C4.81840855 17.75569447 3.12822506 19.43588747 0 21 C-3.79159134 21.43086265 -5.780605 21.10547837 -9.25 19.4375 C-12.70257784 16.37726055 -13.45822051 14.56642716 -14 10 C-12.86635046 5.99888396 -11.88605718 3.74237223 -8.6875 1.0625 C-5.43788871 -0.22223005 -3.4696436 -0.49566337 0 0 Z " fill="#000000" transform="translate(169,337)"/>
<path d="M0 0 C4.03539675 1.94009459 5.6423493 3.24178051 7.5625 7.3125 C8.10611213 11.89437366 7.35065577 14.05696452 5 18 C2.29013532 20.27042717 0.54816936 20.91835776 -2.9375 21.4375 C-6.8124426 20.88393677 -8.95425348 19.40826469 -12 17 C-13.73631636 13.52736727 -13.60190402 9.78806987 -13 6 C-9.08606917 1.05608737 -6.27104539 -0.60298513 0 0 Z " fill="#000000" transform="translate(351,155)"/>
</svg>
